<svg id="Layer_1" data-name="Layer 1" xmlns="http://www.w3.org/2000/svg" viewBox="0 0 594 772.22"><g><path d="M604.23,294.46c-2.5,3-5.16,5.82-7.4,9a7.16,7.16,0,0,0-1.07,4.6c1.36,12.31,4.07,24.6,4.11,36.9.09,22.1-8.58,40.59-27.08,54.62-6.17,4.68-10.52,11.59-15.88,17.32-6.18,6.62-13,12.49-21.48,16.33A30.69,30.69,0,0,1,516,435.3a332.62,332.62,0,0,1-74-24.05c-6.41-3-13.28-5.06-19.88-7.68-3.24-1.29-6-.79-8,1.88-5.22,6.88-10.77,13.6-15.31,20.89-5.25,8.41-4.81,17.55-1.21,26.59,4.57,11.45,12.35,20.95,20,30.53C432.36,502,447.87,520,461.81,539.05c31,42.4,50.19,89.59,58.45,140.94,1,6.37,1.92,12.76,2.83,19.15a28.7,28.7,0,0,1,0,3.41c-.68-.58-1.21-.84-1.43-1.25-16.82-31.57-42-55.92-70.93-77q-23-16.72-46-33.38a4.74,4.74,0,0,0-2.14-.95c22.42,31.65,45.08,63.08,56,100.77-21.56-25.48-47.31-46.64-73.65-67.43,29.94,48.92,46.81,101.6,50.33,159.54-6.2-7.87-11.45-14.88-17.06-21.59-20.16-24.1-43.85-44.64-69.11-63.51-18.2-13.6-36.73-26.77-55.12-40.12-1-.75-2.11-1.42-4.07-2.73,2.23,42.42,21.29,77.44,44,111.35-48-21.06-95.33-42.88-131.51-81.92,2.91,21.7,13.32,40.57,22.93,60.24C178.34,708,106.35,636.15,81.17,535.85c-7.48,32.73-.06,64.55,6.24,96.82-2.37-3.08-4.79-6.13-7.09-9.26s-4.77-6.61-7-10C42.6,568,23.3,518.23,14.56,464.65c-1.63-10-2.24-20.2-3.37-30.3-.19-1.73-.64-3.44-1-5.15V393.33c.31-1.56.69-3.11.94-4.68,2.75-17.34,4.07-35,8.45-52,19.12-73.9,63.45-128,135.66-160,13.85-6.14,26.93-14.05,39.92-21.84,13.81-8.29,24-19.79,29.14-35.09,1.86-5.49,4.52-10.73,6.92-16,8.47-18.68,18.11-36.67,32.26-52,17.24-18.72,39.26-30.62,62.33-41,.27-.12.75.18,1.47.37-4.25,4.3-8.34,8.31-12.28,12.46-6.4,6.74-11.41,14.26-13.46,23.37-2.58,11.48,1.35,21.3,10.79,26.42,8.65-11.81,21-19.53,33.2-27.38,9.56-6.16,17.71-13.63,23.4-23.43a30.19,30.19,0,0,1,2.18-2.77c5.79,18.09,7.35,36.07,6.71,55,13.62-9.25,28.27-14,43-18.45C435,52,448.84,47,461.55,39.41c1-.61,2.15-1,4.08-2-8.75,21.32-18.37,41-33.11,58.36,39.41,18.47,73.3,43.49,105.91,70.37l-61.3-30.32-.81,1.19c20.71,17.47,37.66,38.14,54.3,59.12-7.88-5.13-15.36-10.68-23-16-21.16-14.82-43.27-27.77-69.46-32.55a85,85,0,0,0-27.58-.75,71.29,71.29,0,0,0,8.24,5.38c10.62,6.32,21.42,12.37,31.78,19.07,6.54,4.24,6.77,6.68,2.82,13.39-1.86,3.17-1.48,5.24,1.67,7.27,6.37,4.11,12.65,8.36,18.88,12.67,21,14.51,42.21,28.68,65.1,40.44,13,6.7,25.36,14.7,37.82,22.4,6.59,4.06,12.91,8.58,19.09,13.21,3,2.29,5.51,5.32,8.24,8ZM281.6,146.76l-1.71-.79c-7.06,7-14.57,13.58-21.09,21-16.7,19-28,41.13-37.62,64.06-4.63,11-8.9,22.12-13.34,33.18,5-33.25,12.21-65.86,28.85-95.87a4.57,4.57,0,0,0-2,1.18q-52.06,53.37-55.51,126.75c-1.45,30,7.95,57.31,22.46,83.18,21.21,37.81,50.11,69.45,84.16,96.82,3.59,2.89,7.32,5.62,11,8.42l-.51,1c-11.68-3.59-23.53-6.74-35-10.9s-22.69-9.35-34.36-14.24l174,147-35.1-62.93,1.28-.75a196.86,196.86,0,0,0,39.24,30.57c11.76,7,23.7,13.75,35.55,20.64,20.36,11.85,38.28,26.32,51.68,45.59.54.78,1.26,1.44,2.66,3-.67-3.25-1-5.3-1.52-7.32-5.25-21.55-14.8-41.47-26-60.51-19.22-32.64-39.62-64.63-58.86-97.25-9.72-16.48-18.44-33.57-26.75-50.77-4-8.19-6.8-17.2-2.17-27.35-5.37,3.87-8.6,8.2-8.54,13.47.07,7.16.06,14.79,2.51,21.37,5.86,15.73,13.24,30.93,19.82,46.41,5.16,12.13,10.06,24.36,15.07,36.55l-1.47.66A962.5,962.5,0,0,0,333.48,415a1007.54,1007.54,0,0,0-88.14-93.13l25.53,18.65c-5.7-7.81-11.11-14.37-15.55-21.49-9.74-15.62-16.25-32.23-13-51,3-17.13,13.56-29.09,28.19-38.13a18.49,18.49,0,0,1-3.2,3.36C253,246,245.52,261.46,247,280.62c1.12,14.6,6.85,27.52,15.15,39.42,18.75,26.88,45.06,44.87,74.7,58.82,3.14,1.47,6.42,2.67,9.63,4a9.68,9.68,0,0,0-3.94-3.16c-23-12.33-44.2-27.09-62.09-45.91-12.33-13-22.57-27.14-25.69-45.09-1.73-9.95.83-25,9.91-33.75-7.4,16.25-5.53,29.19,3.64,44.19a124.19,124.19,0,0,0,18.51,23.31c24.49,24.19,53.93,41.28,86,54.34A34.43,34.43,0,0,0,390.62,379c21.28-2.53,38.31-12.14,52.54-27.15,1.1-1.16,2.24-2.29,3.69-3.78-2.23,5.69-4.36,10.73-6.17,15.88-1.21,3.43-.73,6.88,2.23,9.34,5.95,4.95,13.47,6.23,21.88,9.14-.83-3.8-1.26-6.25-1.93-8.65s-1.49-4.49-2.26-6.73c13.75,20.79,34.87,33.28,54.72,47,7.3,5.06,15.68,7.2,24.53,3.44,10.55-4.48,17.76-12.63,25.09-21.37-32.32-26.24-69.05-39.95-110.85-42.08,6-2.47,8.11-7.37,10.08-12.4,4.24-10.84,11.09-20.08,18.74-29.63-.59,7-.6,7,5.84,8.5,13.84,3.2,26.78,8.56,39.35,14.92,6.85,3.47,12.46,8.18,16.26,14.61,5.13,8.66,9.79,17.58,14.76,26.33,2.24,3.94,4.54,7.88,7.17,11.59,2.16,3.06,4.69,3.45,7.81.53a56.48,56.48,0,0,0,16.16-26.27c4.83-17,2.92-33.91-1.47-50.68-1.63-6.24-3.77-12.36-5.2-17,.73.49,2.49,1.72,4.29,2.9,3.62,2.36,5.5-.26,7.38-2.54,1.72-2.07,2.58-4.17-.41-6.09-19.94-12.82-38.42-27.63-60.24-37.85-32.09-15-59.67-37-88.74-56.61-4-2.67-7.22-6.29-11.8-10.36,6.52,0,12.3,1.69,14.46-6.2l-51.65-29.77L405.45,159c-10.65-6.15-20.73-12.37-31.23-17.84a41.2,41.2,0,0,0-14.21-4,7.13,7.13,0,0,0-7.22,10.19c.92,1.93,2.8,3.42,4.25,5.11-5.73.81-9.12-1.31-9.48-6.73a21,21,0,0,1,1.48-8.94c2.4-6,5.26-11.83,8.12-17.64,11.08-22.52,15.76-46.12,13-71-.4-3.59-1.19-7.13-1.67-9.94C358.86,45.1,349.53,52,340,58.64c-8.19,5.65-16.15,11.49-22,19.54s-11.7,16.1-17,24.49c-10.2,16.17-18.91,32.71-13.07,52.83a14.23,14.23,0,0,1-3.69,14Q282.91,158.15,281.6,146.76Zm-57.71,295.4c-1.25-1.6-2.58-3.16-3.75-4.82-9.59-13.56-19.94-26.69-28.53-40.82-14.07-23.12-23.33-48.16-26.13-75-3.3-31.65,2.32-62,15.48-91.09,15-33.21,38.64-60.08,66.64-83.6,7-5.85,14.23-11.34,21.36-17-10.75,14.88-22,29.22-27.29,46.92a107,107,0,0,0,8.2-7.84c20.5-21,33.06-46.64,44.2-73,2.35-5.56,2-11.15.67-17-3.14-13.57-7.72-27.27.13-41.13a23.11,23.11,0,0,0-5.2,2.82c-13.4,9.27-23.64,21.2-31.59,35.09-9.84,17.18-16,35.74-21.68,54.46A40.36,40.36,0,0,1,224.05,149c-9.48,8.38-20.76,13.95-32.18,19.22-24.64,11.39-49.05,23.18-71.67,38.12C98.05,221,79.75,238.92,69.92,263.73a223.35,223.35,0,0,0-15.56,75c-.58,16.91.16,33.89,1,50.81.49,9.75,2.36,19.44,3.6,29.15l1.15.09c5.46-35.54,19-67.41,44.67-93.89-21.4,96,2.84,182.81,56.14,263.8a232.73,232.73,0,0,1-1.31-92.77c.93,1.31,1.33,1.79,1.62,2.31a313.15,313.15,0,0,0,87.65,100c25.71,19.18,52.5,37,78.9,55.31,29.9,20.75,58.23,43.15,80.68,71.77a8.58,8.58,0,0,0,1.79,1.16c-.41-2.14-.71-3.71-1-5.27-.13-.63-.32-1.25-.46-1.88C395.44,660.82,365,611.71,320.3,570.8c-24.21-22.17-49.41-43.33-74-65.12-29.07-25.75-54.82-54.16-73.29-88.19-5-9.16-9.25-18.68-13.85-28l1.05-.6C178.71,409.64,198,429.5,223.89,442.16ZM404.12,106l-.34,1.44c-10.34-1.91-20.68-3.16-31.11-1.32,5.68,2.12,11.44,3.66,17.09,5.5,5.82,1.89,11.61,3.92,17.29,6.17,5.53,2.2,11,4.57,16.3,7.22s10.25,5.7,15.36,8.58l-.49,1c-9.67-3.14-19.5-4.28-29.46-2-8.31,1.92-16.53,4.2-24.79,6.31,4.37.87,9,1.81,13.4,1a117.8,117.8,0,0,1,63.21,5.73c8.59,3.17,16.85,7.18,26.24,11.23-21.72-21.35-47.42-35.47-72.65-50.55l53.73,16.94c-29.39-17.93-59.08-32-93.67-34.18-.71,2.8-1.38,5.41-2,7.82Zm63.26,243.18c1,.22,1.59.44,2.23.51a169.27,169.27,0,0,1,60.61,17.93,101.37,101.37,0,0,0,12.69,5.55c3.78,1.33,5.36,0,4.33-3.55-2.8-9.61-6.69-18.69-16.08-24.18a97,97,0,0,0-30.5-11.46c-4-.79-6.32.38-8.33,4.07,6.29.64,11.65,7.13,19.14.19-1.38,2.69-2.07,4-2.63,5.15l23.09,13.87-.52.93c-3.56-1.55-7.1-3.15-10.69-4.61a100.25,100.25,0,0,0-11.6-4.37c-2.66-.72-5.63-.41-8.79-.58-.94-4.64-12.41-6.58-18.32-1.7l.91-3.68C470.36,341.5,469.69,341.75,467.38,349.14Zm-17.54-294C436.63,59.24,424.33,63,412.12,67a88.4,88.4,0,0,0-15.06,6.23c-2.73,1.52-4.54,4.62-6.77,7,2.49,1.94,4.69,4.63,7.54,5.67,7.74,2.84,15.73,5,23.67,7.33a4.16,4.16,0,0,0,3.42-.64C435.55,81.78,443.07,69,449.84,55.09Z" transform="translate(-10.23 -10.64)"/><path d="M345,157.51c-8-2-16.26-3.28-23.86-6.22-11.29-4.35-14.59-12.63-11.08-24,3.07-10,8.91-18.42,15.6-26.23C338.31,86.31,351.4,71.93,364.3,57.4l1.45.18c0,5.1.38,10.22-.07,15.28-1.26,14-6.48,26.88-12,39.7-3.7,8.61-7.42,17.24-10.46,26.08-2.53,7.38-1.64,11.05,2.19,17.47Z" transform="translate(-10.23 -10.64)"/><path d="M344.41,175.71c5.44-1.7,10.79-3.85,16.36-5,5-1,9.35,1.13,13.12,4.51,9.11,8.18,19.2,15,31.05,18.89a51.53,51.53,0,0,0,9.66,2.25c6.36.82,11.84-.83,15.47-6.6l1.35.16c.57,4,1.67,8,1.59,11.93-.12,5.16-3.61,8.24-8.85,9.73a8.17,8.17,0,0,0-4.07,3.24,74.28,74.28,0,0,0-5.95,10.84l5.72-5.2c-1.54,6.11-7.93,11.91.59,17.58-24.37-5-44.34-16.37-62.7-32.74,4.52.92,8,1.82,11.54,2.29,4.14.54,5.18-.81,4-4.58-2-6.63-3.95-13.29-6.08-19.88-1.25-3.85-4.65-5.58-8.38-5.93-4.59-.43-9.26-.1-13.89-.1Zm56.53,47c-13.6-8.92-16.47-12.69-14.85-19l7.41,1.6L378.12,194.8C376,207.69,384.59,218.55,400.94,222.67Zm-7.48-9,2.4,1c.41-1.18,1.52-3,1.1-3.43a26.23,26.23,0,0,0-5.75-4.41c-.37-.22-1.66,1-2.53,1.58Z" transform="translate(-10.23 -10.64)"/><path d="M538.72,302.06c-2.53-4.79-5.46-9.42-7.52-14.4C526.36,276,521,264.59,511.76,255.24c17.64,9.59,38.8,11.08,55.5,23.3-5.16-.25-9.93-.76-14.69-.65-10.15.24-15.53,6.52-14.19,16.25.35,2.49,1,4.95,1.44,7.42Z" transform="translate(-10.23 -10.64)"/><path d="M572.56,298.25c-10.59,8.66-9.8,24.72,0,37.06-7.67-.24-15.09-5.5-19-13.51-3.23-6.57-4-13.59-3.55-20.72.39-5.57,7.71-9.26,14.33-7.14C567,294.82,569.45,296.59,572.56,298.25Z" transform="translate(-10.23 -10.64)"/><path d="M399.92,269.52c-7-27.42-29.8-41.52-51-57.34,1.11.29,2.25.51,3.34.88A111.32,111.32,0,0,1,396,240.83c2.08,2.1,3.12,5.63,3.6,8.65,1,6.55,1.38,13.2,2,19.81Z" transform="translate(-10.23 -10.64)"/><path d="M450.14,236.5c-1.22,1.28-2.23,2.87-3.68,3.79-8.24,5.23-8.76,13-7.92,21.36.58,5.73.67,11.52,1,17.78-3.17-8.37-6.17-16.11-9-23.9a28.72,28.72,0,0,1-1.34-6.57c-.46-4.11,1.56-6.72,5.55-8,5-1.63,9.93-3.32,14.9-5Z" transform="translate(-10.23 -10.64)"/></g></svg>