<svg id="Layer_1" data-name="Layer 1" xmlns="http://www.w3.org/2000/svg" viewBox="0 0 739.68 852.43"><path d="M667.92,536.58l-26.09-4.86c1,19.73,15.23,33.89,21.3,51.95l-9.19-8.36,8.15,26.35-2.27,1.52L646,592.77c3.29,9.07,6.4,16.43,8.61,24A180.11,180.11,0,0,1,660,641.05c1.12,7.79,1.06,15.74,1.53,23.91l-32.77-30.49-2.12,1.86c3.82,8.4,7.65,16.8,11.86,26.07-37.32,4.17-72.32-2.75-107-15.69-.22,1.62-.4,3-.73,5.33L484.92,630.6c-31,23.07-64.1,13.1-97.07,1.23-5.49-2-9.46-2.06-14.86.39-24,10.89-49.43,16.36-75.77,14.14-31.84-2.67-54.62-34.59-49.16-67.35.47-2.83,1.17-5.62,2.15-10.25,1.77,9.83,2.27,18.11,4.8,25.71,9.2,27.59,33.25,42.91,63.67,38.37,18.58-2.78,36.54-9.64,54.87-14.35a23.16,23.16,0,0,1,10.54,0c17.42,4,34.64,8.92,52.14,12.42,11.79,2.35,23.42-.32,34.51-5.09,14.13-6.07,19.61-18.71,21-32.09,4.59-44.44-4.39-85.15-35.93-119.06C439,456.58,422.36,438.34,407,419.12c-17.63-22.06-27.52-48.31-35.72-75.05-3.58-11.66-1.58-23.25,3-34.53,5.55-13.6,12.46-27,11.35-42.27-.95-13-2.66-26-4.08-39.42-1.55.19-2.92-.06-3.46.49-7.55,7.66-14,4.64-21.43-.9-15.35-11.5-32.15-20.22-51.68-24.11,3.56-.32,7.2-1.26,10.66-.82,5.81.75,12.07,1.26,17.16,3.82,22.42,11.32,44.31,9.14,66.69-.16,14.18-5.9,29.08-9.36,44.71-7.25,2.65.35,5.65.31,7.82,1.58,7.81,4.58,12.71,1.69,18.09-4.66,12.8-15.1,26.35-29.56,40.67-45.46,1.62,5,3,9.26,4.71,14.48l30.74-28.64c-.66,7-1.1,11.77-1.56,16.75l29.37-13,2.08,1.89c-1.65,4.17-3.29,8.34-5.38,13.65,8.32,0,16.56-.79,24.54.28,5.17.7,13.73-2.6,14.3,7.81,0,.9,3.06,1.76,4.78,2.43,13.73,5.31,27.48,10.57,39.75,17,1,1.91,1.61,4.37,3.16,5.62,10.16,8.15,20.54,16,31.93,24.85l-9.67-1c9.26,13,19.1,25.7,27.58,39.22,7.37,11.76,13.32,24.44,19.59,36.86.76,1.51-.37,4-1.85,5.76,5.12,14.54,10.9,28.89,15.11,43.69,2.4,8.42,5.49,17,.63,26.62-2.25,4.44,1.11,11.48,1.09,17.34-.09,22.47-5.23,23.21-23.15,15.74-16.42-6.84-28.27-19-35.59-35.47-11.86-26.67-23-53.7-36.1-79.76-16.34-32.56-43.23-51.93-79.64-57-6.36-.88-12.94-.12-19.51.93,49.43,4.33,80.25,32.94,98.1,76.25,11.27,27.38,18.82,56.29,28,84.54.29.87-.09,2-2.13,4.54l-7.89-12.62-1.6,1.76q4.41,19.77,8.81,39.56l-1.7,1.44L651.19,407c4.64,14.06,8.67,26.31,12.71,38.55l-2.51,1.71-15.2-12.1c-.34,21.71,11.73,43.19,33.88,59l-27.45,3.47c7.1,5.1,12.83,9.23,20,14.36h-22.8C653.43,523.11,661.46,528.48,667.92,536.58ZM563.75,429.38l-29.4-24.44a16.59,16.59,0,0,0,4,7.39c19.37,23.4,27,50.59,22.74,80.21-1.7,11.75-8,23-13.33,34-7.38,15.35-9.89,22-9.37,29.55,7.87-12,16.27-25,24.85-37.84,7.19-10.78,11.74-22.56,10.68-35.5a330.94,330.94,0,0,1,0-58.3c3.74-40.19-6.76-78.12-24.24-114.08-6.45-13.27-14.45-25.78-21.74-38.64l-2.12.94C552.2,320.88,562.61,372.82,563.75,429.38ZM457.57,386.8c-1.54-3.55-3-6.87-4.89-11.29,6.18,1.68,12.25,2.78,12.34-4.24,0-3.11-4.93-6.28-7.62-9.42l-2.06,1.28,2.85-5.69c-11.91,7.94-6.76,20.12-9.25,30.94Zm38.69-23.9v19.39L508.64,371Z" transform="translate(-3.49 -4.54)"/><path d="M76.64,435.43c-1.31,3.95-2.61,7.89-3.87,11.7-6.39-10-6.54-32.43,12.79-58.9-8.57-1-14.29,2.21-31.18,18.29.68-8.72,1.24-15.82,1.84-23.54l-7.68,1c1.6-6.34,3-11.79,4.41-17.52l-42.86-9.8-.31-1.8,30.16-15.4c-3.42-7.18-8.13-14.6-10.51-22.7-3.44-11.71-7.7-24-7.18-35.88,1.48-34.51-5.22-67.65-12.38-101-5.49-25.52-10-51.71-2.25-77.2A762.12,762.12,0,0,1,37.71,20.64C46.66,0,59.58-.65,72.69,17.92s25.21,37.4,42.23,52.45c11.52,10.19,23.63,19.71,35.47,29.53l1.68-1.71-4.14-7.65,54.84,28.08-5-12.1,1.63-1.85,26.65,19.75c-.37-5-.73-9.88-1.11-15C245.8,118,260.28,163.29,256.19,194l-28.52-20.81c-11,9.56-8.94,22.6-9.74,35.95-10.17-3.52-14.39-11.39-17.66-20.18-6.45,9.76-7,23.21-3.16,48.35l-26.34-19.93c.19,19.27,4.3,37.06,22.2,52.14H165.11l-.66,2.73,24.25,13.21L153.83,299c0,.6.09,1.2.13,1.79h26.17c.35.89.71,1.77,1.06,2.65l-40.66,28.09,1.61,2.52,27.19-12,1.29,1.66c-8.8,11.54-18.08,22.76-26.26,34.72-8.43,12.33-13.29,26.15-13,42.24l27.55-20.79c.49.5,1,1,1.46,1.49-4.72,6.5-9,13.43-14.27,19.42-16.68,18.86-15.56,39.9-6.37,60.77,6.76,15.33,16,29.64,24.72,44,8.06,13.23,16.39,26.23,18.93,42.37-1.68-2.34-3.24-4.8-5.07-7-9-10.91-18-21.86-27.22-32.6-3.88-4.52-8.2-4.79-14.18-2.41-31.37,12.48-66,5.45-87.65-17.34-11-11.56-17.62-25.27-18.76-41.47,5.56,12.42,12.49,23.49,28,29.79-3.24-5.43-5.42-9.1-8.51-14.27,6.25,2.77,10.82,5.52,15.77,6.8,5.33,1.38,11.1,2.31,16.52,1.76,7.31-.74,9.38-5.14,6.58-11.94-3.23-7.87-6.77-15.61-10.18-23.41Z" transform="translate(-3.49 -4.54)"/><path d="M222.06,729.33c4.39-12.67,3.49-26.12,12.42-35.35l26.24,50.95,1.63-1,4.92-41.35,2.41-.34c30.59,32.76,68.6,58.32,92.95,97.16a162.45,162.45,0,0,1,21,51.84,11.55,11.55,0,0,1-.4,5.76c-22.88-43.06-53.38-78.67-96.06-102.7l-2.54,1.24,19.29,48.22c-24.41-17.08-49.58-30.87-68.27-54.63.55,9,1.11,18.09,1.75,28.64-33.2-33.79-58.35-69.69-53.62-119.38C190.63,684.82,200,709.91,222.06,729.33Z" transform="translate(-3.49 -4.54)"/><path d="M403,583.72c-3.17,11-10.47,16.31-23.63,16.85-.73-5.37-1.46-10.84-2.2-16.31l-1-.1c-.62,5.6-1.25,11.2-2.12,19l-25.39-13.32c4.6-7.06,8.95-12.18,11.52-18.08,3.82-8.76,0-15.06-9.08-17.79-5.92-1.79-7.69.93-6.82,6,1.14,6.64,2.63,13.46-5.85,15.92-9.34,2.71-11.83-5.18-14.9-11.26-5.07-10.05-6.78-20.58-1-30.8,2.4-4.21,5.9-9.13,10.07-10.79,26.08-10.43,52.67-13.34,80-4.11,25.39,8.58,26.46,31.93,17.87,50.55-3.26,7.07-12.87,8.88-19.52,4.71-5.26-3.3-3.44-7.66-2.41-12.12.93-4,5.46-8.9-1.44-11.5-6.47-2.44-10.75,1.21-13.62,6.77C387.64,568.71,390.33,576.44,403,583.72Z" transform="translate(-3.49 -4.54)"/><path d="M297.9,652.15c27,1.2,52.63-3.52,77.87-11.2a10.69,10.69,0,0,1,5.5-.56c23,6.14,46,11.68,71.68,9-16.26,29.7-40,44-71.58,44.92C346.24,695.36,318.86,680.05,297.9,652.15Z" transform="translate(-3.49 -4.54)"/><path d="M136.45,634.75c1.51-3.06,3-6.17,4.56-9.17,1.49-2.78,3.17-5.46,5.82-10,5.93,23.85,8.7,46.91,22.88,65.86L168.24,683c-5-4.18-10.38-8.06-15-12.63-4.95-4.85-9.27-10.36-15.6-17.56l2,20.14c-12.82-17-28.89-32.08-29-55.63l-2.38-1.27-16.48,19.2c-6.45-14.38-7.81-29.84-3.49-46.92l-17.58,3.18L69.43,590c12.34-9.06,21.08-20.29,23.39-36.39H74.49l33.75-32.82,1.55,1.31-8.37,15.4,1.87,1.11,13.44-4.71c-5.55,15.9-10.31,29.53-15.28,43.79l12.66-4.94c-2.34,9.76-4.32,18-6.73,28.12l21.18-9.74c2,15.1,3.82,29.43,5.67,43.75Z" transform="translate(-3.49 -4.54)"/><path d="M199.6,381.6c11.16-6.63,22.12-14.34,34.06-19.93,16.7-7.83,32.49-.32,38.7,16.73,3.36,9.2,7.05,18.29,10.3,26.68-13.27,1.59-27.48,3.52-41.73,4.94-15.49,1.54-26.66-4-29.66-20C210.7,386.92,204.43,384.91,199.6,381.6Zm24,4.48,1.44-.74c.86.56,1.77,1.65,2.58,1.58,2.85-.26,6.58,0,8.23-1.7,1.33-1.35,1.22-6.4-.17-7.61-1.77-1.55-6-2-8.19-.88-2.55,1.28-5.71,4.81-5.58,7.19.27,4.88,2.55,9.65,4,14.46l2.1-.82Z" transform="translate(-3.49 -4.54)"/></svg>