<svg class='svg-icon'  id="Layer_1" data-name="Layer 1" xmlns="http://www.w3.org/2000/svg" viewBox="0 0 820.75 921.18"><path id="Head" d="M102.42,721c4,3.32,7.25,6.84,11.2,9a53.54,53.54,0,0,0,14.74,5.42c4.68,1,9.39-.43,11.75-5.34s.42-9.22-3.2-12.5c-4.54-4.12-9.23-8.27-14.45-11.43C112.39,700,101.89,694.59,91,688.6c15.4-10.22,32.66-15.1,50.07-18.84-12.53-1.74-25.29-2.71-37.69-5.39-37-8-61.12-30.32-70.38-67.37-5-20-2-39.86,4.16-59.25,2.37-7.45,5.41-14.69,8.15-22l1.4.21c0,2.4,0,4.8,0,7.2.53,24.8,10.78,44.56,31,59A40.18,40.18,0,0,0,87.32,587c7.27,2.65,14.69,3.16,20.77-2.55S117,571,114.86,562.93a39.35,39.35,0,0,0-8.26-15.59,174.62,174.62,0,0,0-21.31-20c-31.56-25.29-41.5-58.61-37.23-97.52a204.52,204.52,0,0,1,21.72-72.41c.71-1.37,1.52-2.68,2.34-4,.15-.24.55-.32,1.32-.75.89,6.36,1.61,12.55,2.62,18.68,7.94,47.85,35.36,81.14,77.72,102.83,24.35,12.46,43.9,30.16,60,52a8.63,8.63,0,0,0,3.63,3.13c-.75-1.84-1.47-3.68-2.24-5.5-10.2-23.95-18.34-48.49-18.27-74.86.1-35.11,14-64.84,37.18-90.53a11.62,11.62,0,0,0,3.31-10c-2-21.71-2.5-43.46,1.43-65,2.94-16.15,10.15-30.09,22.35-41.27a11.73,11.73,0,0,0,1.22-1.49c-18.09-32.53-14.85-66.15-5.53-100,6.49-23.55,16.19-45.64,34.22-62.86,5.74-5.47,12.89-9.48,19.53-14,1.58-1.06,3.7-1.34,6.44-2.27,0,4.89-.48,9,.09,13,1.73,12.16,3.28,24.4,6,36.36,2.23,9.78,7.7,18.16,14.69,25.56a122.08,122.08,0,0,1,25.2,39c.42,1.07,1,2.07,1.47,3,8.6-5.73,16.76-11.71,25.42-16.82,14.44-8.52,29.83-14.53,46.86-15.53a75.78,75.78,0,0,1,38.9,7.65c12.77,6.44,24.74,14.49,37,21.88a50,50,0,0,1,4.3,3.3c2.68-5.57,4.7-11.06,7.77-15.88,5.12-8.07,10-16.56,16.6-23.37,13.84-14.36,20-31.65,22.2-50.78.81-7,.88-14,1.24-21,.1-1.82,0-3.65,0-6.87,4.82,2.32,8.76,3.81,12.29,6,17.76,10.91,29.31,27.14,37.59,45.76,13.51,30.39,21.24,62,15.89,95.43-1.79,11.14-6.39,21.82-10,33.7,15.74,13.92,23.39,33.55,24.18,55.75.63,17.42-.31,34.9-.29,52.35a11.5,11.5,0,0,0,2.36,7.14C680,394.06,693.13,436.2,680,484.93c-3.61,13.34-8.93,26.22-13.49,39.31-.59,1.7-1.36,3.34-1.2,5.46q3.09-4,6.19-8c15.15-19.44,33.15-35.42,55.22-46.77,24.92-12.81,46.44-29.64,61.19-54.06,11.48-19,17.29-39.78,19.61-61.68a14.42,14.42,0,0,1,2-6.68c2.48,5,5.17,9.87,7.41,15,13.84,31.3,20.36,63.82,16.35,98.13-2.68,23-14.43,41-31,56.34-7.79,7.22-16,14-23.53,21.47A56.81,56.81,0,0,0,769.2,556c-4.7,8.41-3.4,17,1.51,24.88,4.29,6.93,11.88,9.49,20.8,7.06,13.82-3.76,23.44-13.13,31.22-24.56a70.15,70.15,0,0,0,12.38-43.21c-.05-1.19-.06-2.39-.06-3.58a1.41,1.41,0,0,1,.21-.48c.3,0,.79,0,.86.18,11.21,23.46,18.21,48,13.85,74.08-6.49,38.66-29.47,63.36-67.5,73-13.52,3.42-27.63,4.5-40.74,6.54,16.42,3.69,33.61,8.54,49.75,19-2.78,1.37-4.91,2.26-6.88,3.41C773,699.12,761.26,705.86,749.8,713a24.88,24.88,0,0,0-7,7.38c-4.49,6.75-.93,14.09,7.21,15,7.2.85,13.51-1.88,19.21-5.94,3.45-2.45,6.51-5.45,10.38-8.73a30.33,30.33,0,0,1-.47,4.11c-8.63,32-29.23,51.06-61.84,57-27.44,5-53,0-77.13-14a121.18,121.18,0,0,0-21.71-10.32c-12-4.05-22.75-.56-29.85,9.9a91.64,91.64,0,0,0-11.5,23.33c-13,40.58-22.1,82-25.23,124.59a15.52,15.52,0,0,0-.19,3.58c1.44,8.83-2.9,14.51-9.3,20-22,18.94-45.8,34.31-74.62,40.42C429.61,987.4,395,978,363.14,957c-10.65-7-20.07-15.93-29.87-24.19a8.56,8.56,0,0,1-2.77-5.62c-1.14-40.37-9.38-79.52-20.16-118.22-2.71-9.72-6.11-19.25-9.36-28.81a38.41,38.41,0,0,0-3.45-6.87c-10.06-17.18-23.09-21.48-41.25-13.35-5.45,2.44-10.62,5.54-15.83,8.5-29.2,16.59-59.85,20.1-91.58,9-25.85-9-40.13-28.61-46.57-54.56A8.15,8.15,0,0,1,102.42,721ZM277.88,265.29l-1.83-.28c-2.79,5.5-6.13,10.8-8.26,16.55-6.21,16.71-5.76,34-2.59,51.19,4.88,26.54,18.36,48.74,37.89,66.67a236.06,236.06,0,0,1,54.27,73.84c22.39,47.29,35.13,97.41,42.81,148.82,4.54,30.43,7.05,61.18,10.2,91.81.92,8.86.89,17.82,1.29,26.73a3.68,3.68,0,0,1-2.31-1.92c-11.05-19.33-22.82-38.2-37.72-54.87-8.34-9.34-17.07-18.62-29.33-22.57C327.61,656.54,316,661,317,677.7c.64,10.74,4.33,21.3,6.74,31.92.14.61,1.06,1,2,1.91.54-2.24.94-3.87,1.32-5.51,3.46-15.23,15-19.79,26.9-9.58A130.43,130.43,0,0,1,375.09,720c11.56,16.3,20.6,33.93,22.65,54.33,1.94,19.32-11.13,34.55-29.43,34.19-11-.21-20-5.16-28.34-11.74-1.35-1.07-2.77-2-4.15-3.06l-1.15.65c1.32,8.06,3,16.08,3.9,24.18s4.68,13.72,11.3,18.4a198,198,0,0,0,40.61,22.65,137.33,137.33,0,0,0,73,8.41c26.07-4,48.7-16,69.56-31.92a25.09,25.09,0,0,0,10.19-16.8c.59-3.55,1.46-7,1.92-10.61.6-4.59.92-9.21,1.42-14.39-6.79,4-12.4,7.91-18.47,10.83-13.92,6.68-29.05,3.83-37.24-7-7.07-9.34-8.33-20.05-5.75-31.26,5.1-22.15,15.95-41.44,30.55-58.57a73.06,73.06,0,0,1,16.9-14.62c8.9-5.52,17.17-2,20.93,7.75a97,97,0,0,1,2.7,10c6.43-13.58,11.23-27.36,7.55-42.4-1.33-5.44-5.51-8.53-11.18-9.19-6.46-.74-12.87-.09-18.2,3.72-7.05,5-14.24,10.15-20.27,16.31-16.89,17.22-29.42,37.67-41.34,58.49a39.22,39.22,0,0,1-2.82,3.53c.92-15.3,1.48-29.15,2.63-42.95,3.08-37.19,7.59-74.19,15.17-110.78,7.66-36.95,17.86-73.08,33.37-107.56,13.46-29.92,31.08-56.7,55.62-79.14,25-22.91,40.87-51.21,41.88-86.24.45-15.43-1.11-30.46-9.27-44.06a80,80,0,0,0-5.09-6.61c-2.53,10.2-5.2,18.85-13.65,23.9s-17.31,5.27-27.31,2.83c23-26,39.72-54.66,44.61-89,5-35-4.38-66.23-25.32-94.32a8.22,8.22,0,0,0-1.3,4c-1.52,15.3-6.3,29.37-15.59,41.76-6,8.07-12.31,16-18.07,24.27C537.11,193.1,530,209.32,532.9,228.4c.41,2.66,1,5.31,1.74,9.45-1.86-2.29-2.72-3.32-3.54-4.38-15.08-19.63-31.64-37.76-52.78-51.12-23.29-14.71-47-16.06-71.16-2.1-21.56,12.47-38.13,30.36-53.52,49.51-2,2.48-3.95,5-5.93,7.46,4.83-17,1.84-32.91-6.48-47.72a206,206,0,0,0-17-24.95c-10-13-19.26-26.22-22.14-42.82-.79-4.59-1.37-9.23-2.15-14.52a24.94,24.94,0,0,0-3.08,3c-12.06,17.63-20.35,36.8-23.07,58.1-4.43,34.74,5.17,66.14,23.66,95.13,6.12,9.61,13.38,18.49,20.09,27.66-5.34,2.18-14.7,2.18-20.67.11C284.72,287,280.31,276.91,277.88,265.29ZM833.35,580.8l-1.61-.23c-1.21,2.36-2.3,4.79-3.66,7.06-7.35,12.29-18.57,19.67-32,23-6.45,1.61-13.23,2.6-20.46.7-9.66-2.55-17.79-6.6-22.77-15.22-9.67-16.74-6.74-42.47,6.91-57.14,9.23-9.91,19.4-19,29.28-28.23,20.52-19.26,33-42.11,31.85-71a119.61,119.61,0,0,0-2.24-18.29c-.82-4.09-2.79-7.94-4.25-11.91a4,4,0,0,0-1.91,2.06c-5.67,11.49-10.13,23.81-17.3,34.28-12.59,18.36-30.39,31.57-48.65,44.1-14,9.63-28.52,19-41.06,30.34-28.45,25.81-49,57.93-68,91-10.48,18.26-19.56,37.32-30,55.59-10,17.54-20.56,34.82-31.73,51.65-5.84,8.82-13,16.89-23.42,21.17-7.39,3-15.26-1.56-15.1-9.46,0-2.49.37-5,.6-7.83a6.39,6.39,0,0,0-2.4,0A60.66,60.66,0,0,0,512.88,740a85.83,85.83,0,0,0-16.73,31.89c-1.67,6.06.94,13.37,6.66,15.42,7.82,2.8,15.71.54,23.23-2,9.85-3.28,17.45-10.1,24.76-17.15C567.94,751.66,586.94,739,611,734.1a46.82,46.82,0,0,1,24.28,1.35c14,4.54,27.09,11.63,40.8,17.07,7.36,2.93,15.08,5.82,22.85,6.61,10.19,1,20.78,2,30.77-1.86,4.63-1.77,9-4.36,14.42-7.07-5.87-1.76-10.75-2.21-14.48-4.51-13.62-8.38-15.25-20.6-4.6-33.2,5.25-6.2,11.9-11.27,18.15-16.57,2.42-2.06,2.69-3.54-.21-4.7-4-1.6-8.06-3.61-12.2-3.91-13-.93-23.57,5.39-33.43,12.91-7.65,5.83-16.35,8.58-25.71,9.26-3,.22-6.14-1.38-9.26-1.65-9-.78-16-5.83-23.21-10.59-.74-.49-.82-2-1.72-4.38,7.38,4.54,13.19,3,18.31-.65,8.88-6.43,17.91-12.8,26-20.16a95.06,95.06,0,0,1,47.6-23.37c11.59-2.15,23.51-2.49,35.16-4.38a165.36,165.36,0,0,0,24.61-6.09c20.87-6.84,34.83-21,41.55-41.86C832.27,591.39,832.5,586,833.35,580.8ZM70.3,409.42l-1.44.33a95.26,95.26,0,0,0-5.11,39,98.41,98.41,0,0,0,3.54,21c6.32,20.54,21.14,35,36.33,49.16,7.23,6.73,14.66,13.33,21.25,20.67,12,13.32,12.82,29.68,10.41,46.28a27,27,0,0,1-12.21,19c-9,5.85-18.41,8.62-29.68,6.62C82.48,609.6,72.87,605.8,65,598.43c-4.85-4.52-8.48-10.35-13.09-16.14,0,2.87-.44,5.54.07,8,3.13,15.25,10.66,27.87,23,37.5,15.1,11.75,33.1,15.47,51.31,18.4,11,1.76,22.08,2.79,33.12,4.18a66.55,66.55,0,0,1,32.18,13.54c9.52,7.21,18.33,15.36,27.89,22.51,7.46,5.58,14.86,12.71,26.14,7.86a4.85,4.85,0,0,1-1.45,3.17c-7.12,5.25-14.92,8.43-23.6,10.87-8.13,2.28-15.1.45-22-1.71-6-1.87-11.23-6.12-16.59-9.66-11.54-7.63-23.49-13-37.57-7.69-2,.75-3.59,2.56-5.37,3.88,1.07,1.3,1.93,2.9,3.25,3.86,7.43,5.47,14.31,11.39,19.53,19.19,6.67,10,4.41,22.65-6,28.42-4.5,2.48-9.72,3.63-14.84,5.47a36.47,36.47,0,0,0,20.21,9c11.41,1.41,23.31,1.85,34.31-2.18,13.89-5.09,27.26-11.59,41-17.18,9.25-3.78,18.79-7.39,28.93-6.73a71.46,71.46,0,0,1,20.49,4.2c16,6.09,30.83,14.52,43,26.91,10.46,10.69,21.63,20.27,36.67,23.53a35.33,35.33,0,0,0,14.73,0c2.65-.59,5.91-4,6.58-6.65a25.78,25.78,0,0,0-.24-13.11c-4.67-15.54-13.93-28.29-26.3-38.6-4-3.3-9.09-5.18-13.69-7.7l-1,1.32c.32,1.28.57,2.57,1,3.82,2.37,7.36-2.22,14.45-9.78,13.52-5-.62-10.54-2.81-14.18-6.12-6.62-6-13-12.79-17.72-20.35-12.76-20.46-25.41-41.08-36.62-62.42-19.71-37.53-40.42-74.34-67.33-107.29-12-14.71-25.37-28.17-40.76-39.34-13.1-9.49-27-17.84-40-27.46C102.23,464,87.4,447.87,78,427.37,75.22,421.47,72.84,415.41,70.3,409.42ZM357.24,632.08a238.36,238.36,0,0,0-18.5-77.49c-10.26-24.52-22-48.41-33.17-72.6,13.7,1.8,25.92,8.38,37.91,18.61-3.17-14.52-8.25-26.38-17.54-36.29a10.91,10.91,0,0,0-8.95-3.78c-37.12.56-65.48-21.83-73.74-58-1.11-4.88-2.19-9.77-3.33-14.88-.79.54-1.16.67-1.32.92-.72,1.16-1.45,2.33-2,3.55a173.58,173.58,0,0,0-16.69,54.74c-3,22.65,2,43.18,17.58,60,13.23,14.25,27.24,27.86,41.64,40.94,24.09,21.89,47.81,44.06,67.61,70.06C350.26,622.58,353.73,627.35,357.24,632.08Zm155.53-21.44.92.33c1-1.5,2.17-3,3.11-4.5,19.81-32.63,39.68-65.21,59.26-98a16.51,16.51,0,0,1,9.55-7.63A76.81,76.81,0,0,0,617,480.31c14.34-15.32,19.69-34.07,20.76-54.44.18-3.39,0-6.79,0-10.19-4.46,6.46-7.21,13.1-10.81,19.24-9.13,15.52-21.74,26.6-40,30.33-10.75,2.2-21.13.89-31.4-2.2-3.77-1.14-6-.84-7.24,3.43-1.63,5.58-4.26,10.87-5.73,16.48-7.51,28.62-15.08,57.23-22,86C517.32,582.68,515.35,596.73,512.77,610.64ZM440.8,960c0-6.07,0-10.64,0-15.22,0-9.66,0-9.66-9.58-11.72-.67-.14-1.33-.33-2-.51-27-7.55-50.52-21.38-71.79-39.35-1.46-1.24-3.06-2.34-5.45-4.15,0,6.74-.35,12.23.15,17.65a14.7,14.7,0,0,0,3.21,8.06,133.25,133.25,0,0,0,56.52,37.77C421,955.65,430.52,957.38,440.8,960Zm0-67.11c-17.12-1.18-33.45-4.42-48.49-11.65-14.75-7.09-28.86-15.53-42.42-22.92,14.14,27.9,66.4,60.06,90.91,55ZM305.05,443.77c2.67-.94,7.7-2.63,12.67-4.5,2.06-.77,4.82-2.12,2.61-4.62-1.94-2.18-3.46-6.63-8.19-3.88-2.16,1.25-5,3.09-7,2.58-8.36-2.14-16.82-8.76-11.41-20.66a3.26,3.26,0,0,0-.3-3c-4.92-4.3-9.89-8.57-15.07-12.56-2.09-1.61-4.12-1.39-4.75,1.94-1.68,8.93-2.15,17.73,2.16,26.16C281.36,436.14,289.66,443,305.05,443.77Zm282.64-33.13c.86,2.36,2.19,4.65,2.49,7.06.72,5.82-2.24,10.34-6.69,13.48s-9.22,3-13.78-.2c-4.29-3-5.57,1.37-7.56,3.39a3.87,3.87,0,0,0,0,3.8c4.28,4.33,21.54,6.33,27.13,3.52,7.93-4,14.14-9.81,17.48-18,3.83-9.38,3.7-19-.17-28.94ZM453.81,923.55c25.7-3.57,47.23-13.11,64.87-31.61-10.43,4.51-20.2,9.51-30.48,13S467,910.25,456.48,913a4.45,4.45,0,0,0-2.56,3C453.51,918.09,453.81,920.34,453.81,923.55Z" transform="translate(-30.53 -61.02)"/><path id="forehead" d="M437,536.94c-.88-6-1.83-12-2.62-18-3.82-29.24-10.57-57.76-23-84.56C405.77,422.51,398,411.67,392,399.91c-5.78-11.5-11.61-23.21-15.33-35.46-6.16-20.23.75-38.67,11.15-56a81.14,81.14,0,0,1,7.54-10.8c-6.26,28.38-6,55,15.94,76.75l2.12-.34c-.47-4.43-1.21-8.85-1.35-13.28-.3-9.39-.84-18.82-.23-28.17.72-10.92,7-19.65,13.2-28.24,8-11.11,16.33-22,21-35.21,5.6-15.72,5.72-31.46,1.36-47.4-.29-1.08-.5-2.2-.74-3.29l1.17-.86c7.3,7.88,15.1,15.35,21.8,23.71,12.62,15.76,22.36,33.07,23.66,53.85a99.2,99.2,0,0,1-9.57,50.17c-5.8,11.93-12.84,23.27-18.4,35.3-3.13,6.77-4.39,14.41-6.61,22.09,15.15-.49,33-24.8,40.16-53.15,6.24,9.31,9.76,18.79,10,29.31.55,24-7.17,45.25-22.84,63.39-15,17.3-28,35.73-36,57.31-4,10.86-7.33,22-10.94,33-.49,1.49-.89,3-1.33,4.53Z" transform="translate(-30.53 -61.02)"/></svg>