<svg class='svg-icon' id="gitlogo" data-name="gitlogo" xmlns="http://www.w3.org/2000/svg" viewBox="0 0 947.28 947.03"><path d="M490.14,947h-30.8a17.54,17.54,0,0,0-2.84-.54,467.53,467.53,0,0,1-66.85-7.26,462.58,462.58,0,0,1-98.81-29.39,474.59,474.59,0,0,1-242.32-230A465.06,465.06,0,0,1,1.69,491.24c-.06-1.84-.45-3.66-.69-5.49V460.88a19.87,19.87,0,0,0,.54-2.83c.32-6.59.17-13.24,1-19.78,2.09-17.56,4-35.19,7-52.6,7.37-42.05,21-82.14,39.79-120.43A474.65,474.65,0,0,1,324.91,24,436.34,436.34,0,0,1,418.32,3.33c15.46-1.61,31-3.2,46.52-3.32,18.5-.13,37.06.7,55.5,2.27a443.07,443.07,0,0,1,47,6.65,461,461,0,0,1,125,43.7,473.89,473.89,0,0,1,190.5,180.26q61.8,105,65.29,226.83a491.76,491.76,0,0,1-1.72,53.45,479.44,479.44,0,0,1-6.62,50,458.83,458.83,0,0,1-45,129.22A474.08,474.08,0,0,1,662.72,908.13a466.19,466.19,0,0,1-167.08,38.21C493.8,946.41,492,946.79,490.14,947Zm6.46-548.74-.74.25v2.87q0,77.26-.05,154.54a4.81,4.81,0,0,0,2.85,4.83,44.74,44.74,0,1,1-42.45-1.45c2-1,3.32-1.77,3.32-4.46q-.15-78.45,0-156.9a3.85,3.85,0,0,0-2.56-4,44.54,44.54,0,0,1-23-55.05c.83-2.37.39-3.73-1.28-5.4q-31.49-31.32-62.81-62.8c-2-2-3.06-1.81-4.92.07-13.4,13.54-26.92,26.95-40.38,40.43Q258,377.78,191.44,444.4c-16.66,16.69-16.66,40,0,56.62L447.65,757.25c15.88,15.87,39.62,15.87,55.52,0Q631,629.43,758.78,501.62c15.78-15.78,15.75-39.54,0-55.3q-20.92-20.94-41.87-41.87l-215-215c-7.26-7.26-15.91-11.37-26.28-11.74-12-.43-21.8,4.22-30.11,12.6q-25.14,25.31-50.34,50.55c-.55.55-1.06,1.14-1.66,1.79a10.44,10.44,0,0,0,.9,1.22q33,33,66,65.89c.68.68,2.22.78,3.33.69,5.66-.46,11.41-2,16.95-1.45,28,2.93,45.77,29.33,38.44,56.59a4.42,4.42,0,0,0,1.31,4.94q30.84,30.69,61.55,61.54a4.61,4.61,0,0,0,5.19,1.33c33.68-9,64.23,21.1,55.31,54.45a44.8,44.8,0,1,1-85.64-26.14c.73-2.11.21-3.15-1.17-4.53q-28.53-28.41-57-56.91C498,399.6,497.3,399,496.6,398.29Z" transform="translate(-1)"/></svg>