<svg id="Layer_1" data-name="Layer 1" xmlns="http://www.w3.org/2000/svg" viewBox="0 0 859.46 848.83"><path d="M1058,511c-18.31-4.79-37.72-7.21-54.63-15-18-8.31-33.54-21.75-50.16-32.95-7-5.42-13.6-11.52-21.11-16.14-37.33-23-74.94-45.47-112.35-68.29-5.2-3.17-9.86-7.21-14.77-10.84.9-1.74,1.81-3.47,2.71-5.2,6.27,2.22,13.19,3.38,18.69,6.81,42.77,26.7,85,54.22,128,80.54,10.69,6.55,23.74,9.13,35.29,14.44,19.41,8.93,38.45,18.68,57.75,27.86,3.23,1.53,7,1.9,10.56,2.8Z" transform="translate(-198.5 -31.95)"/><path d="M533.53,515.19c4.7,5,8.62,11.18,14.22,14.72,57.4,36.17,115.36,71.46,172.54,108,28.62,18.27,56,38.47,83.76,58.1,2.37,1.68,3.11,5.66,6.42,12.11-78.39-22.42-137.09-76.27-208.53-105.61l150.43,94c-40.08-.84-65.1-25.16-94.16-40.38-23.36-12.22-46.39-25.06-69.57-37.63-37-24-74.16-47.74-111-72-9.85-6.49-18.71-14.5-28-21.81-42.94-27.17-86-54.19-128.71-81.72-6.08-3.91-10.54-10.35-15.75-15.61,6.57,3,13.55,5.42,19.66,9.2,49.46,30.67,98.65,61.78,148.22,92.26,7.05,4.34,15.72,6.05,23.64,9l3.66-8.24L452.4,500c-11.9-8.26-23.49-17-35.76-24.71-68.06-42.67-136.28-85.08-203-130.91,17.94,6.27,36.71,10.85,53.67,19.15C308.34,383.63,349.43,404,388.9,427c45.56,26.54,89.36,56.07,134,84.15C526.06,513.12,530,513.87,533.53,515.19Z" transform="translate(-198.5 -31.95)"/><path d="M621.83,659.45l40.36,21.87c-31.4,15.39-45.1-18-73.91-21.67l40.3,27.56c-7.46,14.89-7.49,13.22-18.68,4.66-10.79-8.26-25.16-11.83-39.41-18.1,1.2,4.49,1.91,7.17,2.86,10.71-2.57-.88-4.46-1.18-6-2.1-54.6-33.14-109.07-66.48-163.85-99.33-6.37-3.82-14.34-5-21.57-7.36L198.5,467.2c35.1-7.43,54.44,14.92,77.19,27.57,31.35,17.42,61.69,36.68,92.61,54.89a45.88,45.88,0,0,0,18,5.81c-39.68-43.07-106.9-48.77-140.14-99.94l4.56-7.49c25.52,12.58,52,23.51,76.37,38C419,540.9,510.2,597,601.82,652.28,607.77,655.87,615.13,657.12,621.83,659.45Z" transform="translate(-198.5 -31.95)"/><path d="M552.64,466.6l55.67,38.53L606.74,508,548.36,474l-1.9,3.38L870.14,680l-3.91,6.2c-22.21-14-44.25-28.36-66.64-42.09Q604.85,524.7,409.73,405.93c-6.32-3.84-16-2.16-24.11-3.05L334,355.76l3.34-5.59,57.53,29,.54-1.4-59.06-48.91c56.3-1.61,84.54,45.71,129,61.49q-1.09,2.28-2.17,4.56L425,375.58l-.53,1.3,81.82,59.61Z" transform="translate(-198.5 -31.95)"/><path d="M697.19,230.8c12.72,8.16,25.35,16.45,38.18,24.44,17.13,10.66,34.4,21.09,50.71,33.12-54.1-4.88-91-45.83-142.92-67.06l139.21,95.61-3.15,5.87c-4-1.74-8.29-3.09-12.05-5.28-40.78-23.7-81.41-47.63-122.22-71.27-16.33-9.46-33.23-18-49.38-27.71-5.24-3.16-8.92-8.9-13.32-13.46h0l-12.59-10.33.65.61-.63-4.31-6.55-24,5-2.18,100.55,55.37Z" transform="translate(-198.5 -31.95)"/><path d="M449.63,524.67c9.32,7.31,18.18,15.32,28,21.81,36.82,24.27,74,48,111,72l16.09,14.92L586,632.46,235.7,422.87l2.08-4.29L290.43,447l1.86-2.87-49.52-33.91,2.36-3.61c26.52,15.79,53.23,31.27,79.53,47.43,36,22.15,71.65,45,107.79,67C437.16,523.91,443.86,523.54,449.63,524.67Z" transform="translate(-198.5 -31.95)"/><path d="M847.58,431c6.83,5.4,13.17,11.59,20.55,16.05,40.93,24.72,82.14,49,123.18,73.49,6.13,3.67,11.86,8,16.31,14.73l-90.81-36.71-11.44.75-5.13.17-6.29-3-.61-1.2L878.21,483c-22.84-14.69-45.56-29.57-68.55-44-21-13.18-42.21-25.9-68.26-41.83l36.05,2c-2.78-5-4.45-8-6.11-11l3-3.52Z" transform="translate(-198.5 -31.95)"/><path d="M501.14,474.81c7.29,2.61,15.31,4,21.74,8Q684.81,583.29,846.17,684.65c11.64,7.34,20.55,19,28.22,32.71L675.3,594.57c-4.12-4.46-7.51-10.1-12.48-13.21-48.71-30.45-97.78-60.3-146.44-90.82C510.38,486.77,506.18,480.12,501.14,474.81Z" transform="translate(-198.5 -31.95)"/><path d="M590.33,377.49c37.43,23.66,74.65,47.68,112.36,70.89C738.2,470.24,774.43,491,810,512.79c12.66,7.78,24.19,17.4,36.24,26.18-4.37.27-9.84,2.4-13,.55-111.87-66.3-223.52-133-333.44-202.93l38.5,14.59Z" transform="translate(-198.5 -31.95)"/><path d="M661.63,479.85c3.94,3.67,7.37,8.2,11.9,10.89,58.58,34.71,117.32,69.17,174.74,107.31l-13.63-1.47,30.58,23-3,4.7-99.94-61.32c-5.24-5.3-9.66-11.93-15.83-15.68C672,502,597.21,457.17,522.56,412.19c-5.26-3.17-10.28-6.72-13.41-13.35,34.76,20.28,69.36,40.83,104.42,60.58,5.89,3.32,13.73,3.19,20.67,4.66l3-3.9Z" transform="translate(-198.5 -31.95)"/><path d="M590.33,377.49l-52-26.31c-18-12.31-36.12-24.49-54-37-9.05-6.33-15-13.56-3-22.9,5.74,5.77,10.61,13,17.36,17.1q196.29,119.25,393,237.88c20.89,12.64,41.46,25.8,62.18,38.72l-2.35,4.23c-7.45-4.25-15-8.38-22.34-12.78Q770.54,481.63,612,386.87C605.26,382.88,597.56,380.57,590.33,377.49Z" transform="translate(-198.5 -31.95)"/><path d="M417.8,603.55,557.91,684.7,556.26,689l-26.68-9.88,14.48,13L542.14,695c-25.58-15-51.26-29.82-76.72-45-51.36-30.66-102.71-61.34-153.77-92.5-8.08-4.93-14.58-12.45-21.81-18.77,7.91,2.38,16.61,3.37,23.59,7.37,28.49,16.34,56.34,33.8,84.71,50.35C404.06,599.85,411.21,601.22,417.8,603.55Z" transform="translate(-198.5 -31.95)"/><path d="M697.19,230.8l-28.56-10.55q-44.91-29.07-89.84-58.14c-6-3.9-12.08-7.71-16.27-15.05l68,36.3c-11.08-15.75-32.27-19.4-39.57-37.85L698.44,194c-1.92,20,14.27,26.9,26.53,36.64L761,257l-.61,1.24Z" transform="translate(-198.5 -31.95)"/><path d="M654.17,367c-7.94-5.26-15.68-10.84-23.85-15.72-58.66-35-117.41-69.94-174.12-108.73,5.5,2.74,11.12,5.26,16.47,8.27,31.9,17.9,63.38,36.57,95.72,53.64,17.15,9.05,36.7,13.7,53.49,23.28,40.3,23,79.61,47.74,119.32,71.78l-2.41,4.31c-16.62-9-33-18.42-50-26.68-5.68-2.76-12.84-2.48-19.32-3.59l-11.7-2.28C656.58,369.82,655.38,368.39,654.17,367Z" transform="translate(-198.5 -31.95)"/><path d="M909.59,389.53c-1.26.36-2.81,1.4-3.73,1-33.19-14.53-66.32-29.19-101-44.53,20.68-18.47,69.75-19,101.8,10.73L874,347.08l28.22,31.29Z" transform="translate(-198.5 -31.95)"/><path d="M452.4,500l48,29.53-3.66,8.24c-7.92-2.92-16.59-4.63-23.64-9-49.57-30.48-98.76-61.59-148.22-92.26-6.11-3.78-13.09-6.17-19.66-9.2l-25.08-17.6,2.35-4.42c6.66,2.78,13.75,4.83,19.92,8.46,42.94,25.28,85.64,51,128.57,76.28C437.69,494.05,445.22,496.72,452.4,500Z" transform="translate(-198.5 -31.95)"/><path d="M909.59,389.53l-7.4-11.16,31.37,10.8,1.35-1.7L907.62,369.4c.26-.92.52-1.85.79-2.77q26.25,6.67,52.53,13.32l.47-.53-11.31.6,36.67,23.33c-.33.76-.67,1.53-1,2.29l-15.58-6-1.6,2.34L1000.73,424c-.34.78-.67,1.56-1,2.33l-27-11.23-1.11,2.33,20.85,15.49L990.08,437Z" transform="translate(-198.5 -31.95)"/><path d="M887.45,495c3.34,4.59,5.74,10.57,10.17,13.53,20.78,13.89,42.11,27,63.24,40.32l-2.78,4.66L838.37,482.89c-4.08-4.52-7.48-10-12.36-13.38C805,454.93,783.45,441,762.11,426.8l-.31.39q47.46,24.48,94.93,48.95c5.2,2.67,10.62,4.93,15.94,7.38Z" transform="translate(-198.5 -31.95)"/><path d="M497.61,354.34,693.47,466.75C677.65,470,556.49,401,497.61,354.34Z" transform="translate(-198.5 -31.95)"/><path d="M725,230.67C712.71,220.93,696.52,214,698.44,194c34.62,12.56,65.54,30.16,86.7,64.52Z" transform="translate(-198.5 -31.95)"/><path d="M747.43,343.86c-63.4-11.52-109-57.72-163-88.57,4,1.74,8.14,3.14,11.91,5.25,28.36,15.89,56.14,32.88,85.1,47.58,22.22,11.29,45.89,19.73,68.91,29.44Q748.91,340.71,747.43,343.86Z" transform="translate(-198.5 -31.95)"/><path d="M477.2,170.12,651.61,272.34q-2.57,4.28-5.15,8.55L474.8,174.08Z" transform="translate(-198.5 -31.95)"/><path d="M768.41,144.71l27.8-1.34-.14,4.12L774,162.8l23.47,17.78-31.66-9,22,17-1.26,2.79L719,165.58l1.85-5.86,21.26,6.94.74-2.07-19-13.54c.37-.91.73-1.82,1.09-2.73,5.82,2.37,11.48,5.25,17.48,6.94,5.67,1.59,11.75,2.86,17.52,2.44,3.19-.23,6.12-4.23,9.16-6.53Z" transform="translate(-198.5 -31.95)"/><path d="M614.07,362.25,562.3,334.93c-4.12-4.61-7.49-10.34-12.49-13.63-20.44-13.45-41.39-26.15-61.37-41.35,2.91.9,6.09,1.3,8.68,2.76,35.78,20.17,71.64,40.22,107,61,5.54,3.26,8.89,10.23,13.26,15.48Z" transform="translate(-198.5 -31.95)"/><path d="M598.1,293,458.94,206.65c49.45,23.72,98.07,48.8,144.33,77.79Q600.69,288.72,598.1,293Z" transform="translate(-198.5 -31.95)"/><path d="M628.64,458.69c-3.22-.49-7,0-9.57-1.59-46.68-28.91-93.2-58.07-138-90.51,8.2,4.56,16.46,9,24.6,13.71,35.61,20.44,71.27,40.77,106.66,61.58,5.93,3.48,10.58,9.14,15.82,13.8A2,2,0,0,0,628.64,458.69Z" transform="translate(-198.5 -31.95)"/><path d="M601.92,317C556,291,512,261.67,469.18,230.31l136.75,78.54Z" transform="translate(-198.5 -31.95)"/><path d="M659.73,131.4c-33.74.41-56.09-22.4-85.82-37.63,23.71-7.39,38.07-1.47,51.73,15.34C633.8,119.14,648.16,124.14,659.73,131.4Z" transform="translate(-198.5 -31.95)"/><path d="M991.33,358.67,1023,381.21c-20.32-6.67-41.52,16-61.53-1.82l-.49.56c3-.72,6.12-1.46,10.44-2.51L955.91,365l22.63-4.83Z" transform="translate(-198.5 -31.95)"/><path d="M861.78,550.31l60.46,26.43c-.61,1.72-1.22,3.45-1.82,5.17l-16.86-2.24,5.3,10.76-3.22,3.42-41-30.79Q863.2,556.68,861.78,550.31Z" transform="translate(-198.5 -31.95)"/><path d="M625.08,34.24l-11.3,4.28,31.58,20.59H587c.1-1.41.19-2.83.28-4.24h24L594.7,32h29.12Z" transform="translate(-198.5 -31.95)"/><path d="M542.33,193.59,463,146.49,466,141l80.77,43.24Q544.54,188.89,542.33,193.59Z" transform="translate(-198.5 -31.95)"/><path d="M746.28,431.4c-15.89-10-32-19.72-47.53-30.3-5.23-3.56-8.91-9.41-13.29-14.22,5,1.23,10.52,1.42,14.79,3.86C721,402.56,741.32,415,761.8,427.19l.31-.39-16.59,4Z" transform="translate(-198.5 -31.95)"/><path d="M991.33,358.67l-12.79,1.45-15-16.06,26.42,6.53L980,340l3.26-4.63,34.1,23.48-1.92,3.53Z" transform="translate(-198.5 -31.95)"/><path d="M918.46,409.54l63,38.29-2.68,4.73-66-34.26Q915.64,413.92,918.46,409.54Z" transform="translate(-198.5 -31.95)"/><path d="M750,390.37l-57.53-29.63q2-3.8,4-7.59l56.64,31Z" transform="translate(-198.5 -31.95)"/><path d="M585.32,69.15c12.28,2.35,24.7,4.15,36.77,7.32,4.44,1.16,8,5.53,10.23,12.77L583.83,74.1C584.33,72.45,584.82,70.8,585.32,69.15Z" transform="translate(-198.5 -31.95)"/><path d="M837.22,310.78l48.88,6c-.32,1.83-.63,3.66-1,5.49l-48.84-3.74Q836.76,314.65,837.22,310.78Z" transform="translate(-198.5 -31.95)"/><path d="M574,202.8q-6.15-4-12.28-7.94l8.5.48-.65-.61,4.14,8.53Z" transform="translate(-198.5 -31.95)"/><path d="M634.21,371.39l-8.7-4.58,11-.27C635.71,368.16,635,369.77,634.21,371.39Z" transform="translate(-198.5 -31.95)"/><path d="M614.07,362.25l3.35-3,4.87,4Z" transform="translate(-198.5 -31.95)"/><path d="M561.52,191.2c.23,1.37.46,2.75.68,4.13l-6.65-2.23Z" transform="translate(-198.5 -31.95)"/><path d="M649.6,367.16c0,1.35.09,2.7.13,4l.45-.45-8.53-.06.71.58c-.21-1.44-.41-2.88-.62-4.32Z" transform="translate(-198.5 -31.95)"/><path d="M582.2,205.06h0L574,202.8l-.29.46Z" transform="translate(-198.5 -31.95)"/><path d="M621.74,362.83l4.54,4.57" transform="translate(-198.5 -31.95)"/><path d="M628.12,455.68a8.78,8.78,0,0,1,.52,3" transform="translate(-198.5 -31.95)" fill="#fff"/><path d="M637.25,460.18l-3,3.9Z" transform="translate(-198.5 -31.95)" fill="#fff"/><path d="M653.34,386.85c8.33,3.31,16.93,6.08,24.95,10,22.79,11.25,45.34,23,68,34.52l-.76-.62L790.77,463c4.67,4.11,8.87,9,14.09,12.22,46.85,29.08,93.88,57.86,140.84,86.75,4.34,2.67,8.6,5.46,11.09,11.36-6.13-2.83-12.58-5.11-18.34-8.57Q800.89,482.29,663.61,399.31C659.27,396.68,656.73,391.07,653.34,386.85Z" transform="translate(-198.5 -31.95)"/><path d="M441.57,659.05,315.65,586.17c1-2.3,2-4.61,3-6.91,5.62,1.27,12,1.21,16.75,4q88.22,52.07,176,104.92c1.33.79,1.93,2.79,3.75,5.59l-52.59-24.42Z" transform="translate(-198.5 -31.95)"/><path d="M600.14,781.07l31.82,22-23.21-3.79,27.07,31.13H601.24l-.51-5.89L611.41,822l-29.57-29.54,19.61-2.38L590.7,778.69l18.51-4.87c-2.89-3.43-5.52-6.57-11.73-14l42.88,8.49-.72,4Z" transform="translate(-198.5 -31.95)"/><path d="M998.43,511.71l-126-69.2,5.11-9,123,74Z" transform="translate(-198.5 -31.95)"/><path d="M402.39,712.88l-15.55-17.4,24.8,3-24.07-17.27,1.12-2.38,72.91,25.7c-.44,1.23-.89,2.47-1.34,3.71l-56-5.09,28.52,21-31.2-6.52C401.86,716,402.13,714.45,402.39,712.88Z" transform="translate(-198.5 -31.95)"/><path d="M905.37,499.3l11.44-.75,75.13,49.74C962.29,533.38,927.07,528.34,905.37,499.3Z" transform="translate(-198.5 -31.95)"/><path d="M882.85,600.43l-76.1-43.83,5.13-8.61,74.24,47Z" transform="translate(-198.5 -31.95)"/><path d="M588.74,724.08l26.42-1.49-14.88-13.46c.35-.64.61-2,1.37-2.41,15.85-8,23,7.93,34,13,.5.23-1.88,10.16-3.2,10.23-14.6.77-29.26.49-43.9.49Z" transform="translate(-198.5 -31.95)"/><path d="M441.57,659.05l20.9,10.3,37.82,27.18-1.12,2.21c-19.22-9.32-38.57-18.42-57.46-28.38C440.12,669.52,441.54,663,441.57,659.05Z" transform="translate(-198.5 -31.95)"/><path d="M589,862.67c16.23,7.09,30.31-15.8,52.24-1.23l-24.36,2,15,12.5c-.51,1.6-1,3.19-1.54,4.79l-43.11-11.07C587.85,867.36,588.44,865,589,862.67Z" transform="translate(-198.5 -31.95)"/><path d="M402.39,712.88l-.79,4.72c1,2.45,2,4.91,4.32,10.63L368.43,714l1-6.14Z" transform="translate(-198.5 -31.95)"/><path d="M633.68,370.68l8.68.61-.71-.59q2.55,4.31,5.08,8.61l-.43.56-1.59.45c.54.57,1.08,1.13,1.61,1.7l.83.78c.33,1.51.66,3,1,4.53l-14.86-10.59,1.38.26-1.38.36C633.41,375.13,633.55,372.91,633.68,370.68Z" transform="translate(-198.5 -31.95)"/><path d="M894,496.51l6.29,3Z" transform="translate(-198.5 -31.95)" fill="#fff"/><path d="M649.73,371.21l8.46-.46q2.07,4.2,4.15,8.39l-7-.6-5.19-7.78Z" transform="translate(-198.5 -31.95)"/></svg>