<svg id="piggyBank" xmlns="http://www.w3.org/2000/svg" viewBox="0 0 823.81 757.08" fill="#fff"><path id="pig" d="M107.31,527.81c-7-3.81-14-7.63-21-11.38-5.28-2.82-8.58-6.94-8.23-13.13.55-9.65,10.6-14.95,19.58-10.2,13.09,6.91,26,14.2,39.11,21.07a20.76,20.76,0,0,0,8.91,2.34c12.49.25,25,.1,37.49.1h5c1.68-11.5,2.85-22.42,4.91-33.17,7.56-39.37,24.77-74.34,49.74-105.48,42.84-53.42,98.59-87.59,163.2-108.21,35.91-11.46,72.79-17.23,110.48-18.34A406.06,406.06,0,0,1,668,275.47a10.92,10.92,0,0,0,9.4-.63,242.15,242.15,0,0,1,97.91-25.1c4.56-.19,8.78.38,11.11,4.95,2.09,4.09.6,8.4-4.15,12a159.3,159.3,0,0,0-34.93,36.83c-1.79,2.6-3.45,5.28-5.51,8.46,4.65,3.33,9.24,6.54,13.75,9.85,40.63,29.82,72.92,66.57,93.47,113a226.2,226.2,0,0,1,19.59,86.62c0,1.5.28,3,.2,4.49-.15,2.71,1.24,3.42,3.66,3.38,6.17-.07,12.33-.1,18.5,0,8,.15,10.87,3,10.88,10.89q0,40,0,80c0,7.08-3.22,10.43-10.34,10.48-14.34.1-28.67-.07-43,.17-1.85,0-4.57,1.42-5.38,3-27.38,52.4-68.28,91.43-119.15,120.52-5.06,2.9-7.16,5.84-7,11.92.45,23,.2,46,.18,69,0,9.45-2.38,11.79-11.78,11.79H610.88c-8.33,0-11-2.64-11-11.08,0-12.13,0-24.26,0-37.26-44.47,7.33-88.47,8.07-133.3,1.29v14.41c0,7.34.16,14.67,0,22-.21,8.05-3,10.63-11.05,10.63q-47.74,0-95.49,0c-8.17,0-10.89-2.8-10.9-11.22,0-22-.19-44,.13-66,.08-5.27-1.73-7.78-6.29-10.2-45.49-24.09-84-56.3-112.89-99.25-23.4-34.78-37.34-73-40.71-114.94-.07-.81-.24-1.62-.44-2.93-1.67-.08-3.27-.18-4.88-.22s-3,0-5.27,0c6.07,15.28,6,29.86-2.7,43.71a43.52,43.52,0,0,1-22,18.08,45.17,45.17,0,0,1-52.41-14.83C88.23,571.67,90,551.52,107.31,527.81Zm319.42,76c1.18,4.26,2,7.79,3.13,11.25,11.69,37.36,35.93,60.25,75.53,65.3,3.12.4,4.24,1.63,4.2,4.77-.15,10.5,0,21-.12,31.49-.05,3.34.87,4.82,4.49,4.72,8.16-.21,16.34-.24,24.49,0,3.94.12,4.74-1.54,4.69-5-.17-10.16.1-20.33-.14-30.48-.1-4,1.18-5.29,5.22-5.83,19.35-2.61,37.28-8.91,51.61-22.81,21.38-20.73,28-46.55,24.69-75.37-2.72-23.68-14.57-42.08-34.86-54.27-10.78-6.47-22.61-11.26-34.17-16.33-15.06-6.61-30.61-12.17-45.43-19.27-11.55-5.52-15.95-15.71-14.07-27.66,2-12.83,10.74-22.78,22.44-25.22,15.37-3.21,28.62.73,38.32,13.28,4.51,5.84,7.61,12.79,11.26,19.28,1,1.68,1.57,3.55,2.51,5.71,14.92-6.14,29.37-12,43.72-18.15.9-.38,1.78-2.76,1.45-3.81-8.19-25.69-23-45.69-49.09-55.43-7.42-2.77-15.29-4.33-23.53-6.6,0-8.34-.14-17,.07-25.61.09-3.65-1-5-4.79-4.91-7.32.24-14.66.06-22,.07-6.83,0-6.83,0-6.84,6.76,0,8.09,0,16.19,0,24.22-3.39.73-6,1.32-8.58,1.84-23,4.64-41.1,16.07-53.08,36.93-17.33,30.14-14.83,69.76,6.62,95.61,10.48,12.62,24.61,19.68,39.31,25.69,16.31,6.67,32.92,12.59,49.21,19.3,7.19,3,14.35,6.43,18.46,13.77,10.21,18.22-.77,42.33-21.23,46.11a80.25,80.25,0,0,1-16.38,1.22c-20-.49-34.88-11.44-41.41-30.31-1.51-4.37-2.49-8.91-3.81-13.75ZM609.23,310.6c1.13-.74,3.95-1.75,5.52-3.75,4-5.16.63-11.4-6.84-13-45.93-9.8-92.11-10.71-138.49-3.73-7.07,1.06-14.09,2.47-21.09,3.95-5.13,1.08-8,5.26-7,9.81s4.6,7.11,9.68,6.47c1.82-.22,3.61-.6,5.41-1a359.64,359.64,0,0,1,120.67-4C587.27,306.83,597.42,308.69,609.23,310.6ZM754.18,452.37c0,9.13,2.86,16.76,8.1,21.83,5.53,5.35,12.6,5.59,18.35.61,11.66-10.09,11.61-35.05-.1-45.09-5.55-4.75-12.69-4.64-18,.47C756.26,436.24,754.21,443.94,754.18,452.37ZM137.45,581.23a19.35,19.35,0,1,0,.41-38.69c-10.1-.1-19.25,8.78-19.54,19C118,571.92,126.88,581.06,137.45,581.23Z" transform="translate(-78.09 -89.97)"/><path id="coin" d="M526.3,243.39c-41.29-1.08-76-35.9-74.24-80.78,1.62-40.05,37-73.48,78.06-72.62,42,.88,76.46,36.31,75.31,77.43C604.19,211.34,569.63,244.53,526.3,243.39Zm-2.6-134.87a16.82,16.82,0,0,0-.3,3.48c.7,4.59-.9,6.82-5.74,7.81a21.5,21.5,0,0,0-9.5,5.15,26.53,26.53,0,0,0,6.75,44c6.62,3.08,13.62,5.32,20.32,8.24,5.31,2.31,7,6,5.94,11.77-.79,4.44-4.48,7.54-9.56,8-9.47.91-14.49-2.35-17.83-11.5a17.11,17.11,0,0,0-1.51-2.6l-16.8,4.47c2.84,5.37,4.85,10.27,7.79,14.52,4.62,6.69,12,9,20.24,10.61v12.23h10.7V212.48c2.94-.75,5.55-1.28,8.07-2.09,17.3-5.52,25-26.89,14.15-41.36-3.55-4.74-9.67-7.84-15.1-10.82-5.64-3.1-11.94-5-17.82-7.7-4.15-1.92-5.72-5.56-4.64-10,1.14-4.64,4.07-7.45,9.11-7.83,5.84-.43,9.9,2.22,12.77,7,1,1.67,1.78,3.47,2.83,5.54L558,139.16c-2.73-9.24-7.56-16.36-16.39-18.68-6.48-1.69-8.57-4.78-7.78-10.85,0-.25-.31-.54-.65-1.11Z" transform="translate(-78.09 -89.97)"/></svg>