<svg id="Layer_1" data-name="Layer 1" xmlns="http://www.w3.org/2000/svg" viewBox="0 0 728.66 506.95"><line y1="240.21" x2="709.66" y2="240.21" fill="none" stroke="#000" stroke-miterlimit="10" stroke-width="4.81"/><line x1="6.44" y1="441.75" x2="709.66" y2="441.75" fill="none" stroke="#000" stroke-miterlimit="10" stroke-width="4.81"/><line x1="6.98" y1="62.67" x2="709.66" y2="62.67" fill="none" stroke="#000" stroke-miterlimit="10" stroke-width="5"/><rect x="469.16" y="261.66" width="88" height="133" fill="none" stroke="#000" stroke-miterlimit="10" stroke-width="5"/><rect x="359.16" y="261.66" width="88" height="133" fill="none" stroke="#000" stroke-miterlimit="10" stroke-width="5"/><rect x="251.16" y="261.66" width="88" height="133" fill="none" stroke="#000" stroke-miterlimit="10" stroke-width="5"/><rect x="140.16" y="261.66" width="88" height="133" fill="none" stroke="#000" stroke-miterlimit="10" stroke-width="5"/><rect x="579.16" y="79.66" width="88" height="133" fill="none" stroke="#000" stroke-miterlimit="10" stroke-width="5"/><rect x="469.16" y="79.66" width="88" height="133" fill="none" stroke="#000" stroke-miterlimit="10" stroke-width="5"/><rect x="361.16" y="79.66" width="88" height="133" fill="none" stroke="#000" stroke-miterlimit="10" stroke-width="5"/><rect x="250.16" y="79.66" width="88" height="133" fill="none" stroke="#000" stroke-miterlimit="10" stroke-width="5"/><polygon points="648.97 344.53 664.84 328.66 648.97 312.79 662.43 312.79 678.3 328.66 662.43 344.53 648.97 344.53" fill="#202020"/><polygon points="617.23 344.53 633.1 328.66 617.23 312.79 630.69 312.79 646.56 328.66 630.69 344.53 617.23 344.53" fill="#202020"/><polygon points="585.49 344.53 601.36 328.66 585.49 312.79 598.95 312.79 614.82 328.66 598.95 344.53 585.49 344.53" fill="#202020"/><polygon points="80.47 344.53 96.34 328.66 80.47 312.79 93.93 312.79 109.8 328.66 93.93 344.53 80.47 344.53" fill="#202020"/><polygon points="48.73 344.53 64.6 328.66 48.73 312.79 62.19 312.79 78.06 328.66 62.19 344.53 48.73 344.53" fill="#202020"/><polygon points="16.99 344.53 32.86 328.66 16.99 312.79 30.45 312.79 46.32 328.66 30.45 344.53 16.99 344.53" fill="#202020"/><polygon points="102.47 131.53 118.34 115.66 102.47 99.79 115.93 99.79 131.8 115.66 115.93 131.53 102.47 131.53" fill="#202020"/><polygon points="70.73 131.53 86.6 115.66 70.73 99.79 84.19 99.79 100.06 115.66 84.19 131.53 70.73 131.53" fill="#202020"/><polygon points="38.99 131.53 54.86 115.66 38.99 99.79 52.45 99.79 68.32 115.66 52.45 131.53 38.99 131.53" fill="#202020"/><polygon points="193.47 131.53 209.34 115.66 193.47 99.79 206.93 99.79 222.8 115.66 206.93 131.53 193.47 131.53" fill="#202020"/><polygon points="161.73 131.53 177.6 115.66 161.73 99.79 175.19 99.79 191.06 115.66 175.19 131.53 161.73 131.53" fill="#202020"/><polygon points="129.99 131.53 145.86 115.66 129.99 99.79 143.45 99.79 159.32 115.66 143.45 131.53 129.99 131.53" fill="#202020"/><polygon points="72.84 155.79 56.98 171.66 72.84 187.53 59.38 187.53 43.51 171.66 59.38 155.79 72.84 155.79" fill="#202020"/><polygon points="104.58 155.79 88.72 171.66 104.58 187.53 91.12 187.53 75.25 171.66 91.12 155.79 104.58 155.79" fill="#202020"/><polygon points="136.32 155.79 120.45 171.66 136.32 187.53 122.86 187.53 106.99 171.66 122.86 155.79 136.32 155.79" fill="#202020"/><polygon points="163.84 155.79 147.98 171.66 163.84 187.53 150.38 187.53 134.51 171.66 150.38 155.79 163.84 155.79" fill="#202020"/><polygon points="195.58 155.79 179.72 171.66 195.58 187.53 182.12 187.53 166.25 171.66 182.12 155.79 195.58 155.79" fill="#202020"/><polygon points="227.32 155.79 211.46 171.66 227.32 187.53 213.86 187.53 197.99 171.66 213.86 155.79 227.32 155.79" fill="#202020"/><line x1="728.16" y1="250.66" x2="728.16" y2="248.66" fill="none" stroke="#000" stroke-miterlimit="10"/><text transform="translate(258.2 50.22)" font-size="60" font-family="MyriadPro-Bold, Myriad Pro" font-weight="700">S<tspan x="32.4" y="0" letter-spacing="-0.07em">T</tspan><tspan x="60.96" y="0" letter-spacing="-0.02em">A</tspan><tspan x="98.82" y="0">CK</tspan></text><text transform="translate(249.53 491.95)" font-size="60" font-family="MyriadPro-Bold, Myriad Pro" font-weight="700">QUEUE</text></svg>