<svg id="Layer_1" data-name="Layer 1" xmlns="http://www.w3.org/2000/svg" viewBox="0 0 247.5 589.85"><path id="stroke" d="M375.73,243.35c0-46.4.31-92.8-.11-139.19-.31-34.49-16.08-60.28-47.91-73.84s-61.61-8-87.16,15.48c-17.31,15.91-24.47,36.48-24.45,59.85q.1,141.51.11,283a12.07,12.07,0,0,1-4.15,9.78c-28.46,26.9-41.8,60-39.4,99.16,4.54,74,74.73,128,147.26,112.71,49.17-10.4,81.87-40.64,95.07-89,13.07-47.88-.33-89.64-36.25-124a8.6,8.6,0,0,1-3.07-6.86Q375.8,316.95,375.73,243.35Z" transform="translate(-172.39 -23.07)" fill="#fff"/><path id="body" d="M375.73,243.35q0,73.61-.06,147.2a8.6,8.6,0,0,0,3.07,6.86c35.92,34.32,49.32,76.08,36.25,124-13.2,48.31-45.9,78.55-95.07,89-72.53,15.33-142.72-38.73-147.26-112.71-2.4-39.12,10.94-72.26,39.4-99.16a12.07,12.07,0,0,0,4.15-9.78q-.15-141.51-.11-283c0-23.37,7.14-43.94,24.45-59.85,25.55-23.5,55.43-29,87.16-15.48s47.6,39.35,47.91,73.84C376,150.55,375.73,197,375.73,243.35Zm-136,113.43v4.92c0,11.82-.19,23.63.1,35.44.15,6.18-2,10.51-6.88,14.41A99.32,99.32,0,0,0,200.15,518.2c11.8,38.75,46.47,67,86.57,70.63a100.43,100.43,0,0,0,101.92-62,99.37,99.37,0,0,0-29.48-115.07C354,407.61,352,403.06,352,396.6q.19-146.39.09-292.75c0-23.64-13.28-43.74-34.46-52.37a56.81,56.81,0,0,0-62.28,12.63c-17.22,17.45-16.5,39.19-15.31,61.55h4.75c15.18,0,30.37,0,45.55,0,5.37,0,9.22,2.36,11.31,7.23,3.4,7.9-2.24,16.14-11.33,16.27-14.48.2-29,.07-43.45.08h-6.82v28.21h5q22.35,0,44.71,0c5.24,0,9.37,2,11.7,6.77,3.86,7.92-1.73,16.65-10.9,16.76-15.32.17-30.65,0-46,.08-1.49,0-3,.13-4.49.2v28.2c16.41,0,32.43,0,48.45,0a21.38,21.38,0,0,1,5.83.54,11.59,11.59,0,0,1,8.14,12.72c-.79,6-5.55,10.19-12,10.23-15.33.09-30.65,0-46,0H240v28.22h4.86c14.91,0,29.81-.07,44.71,0,7.92.05,13.05,4.87,13,11.89s-5.18,11.63-13.14,11.65q-22.35,0-44.71,0H240v28.5h4.82q22.56,0,45.13,0c7.52,0,12.64,4.8,12.65,11.7s-5.18,11.73-12.66,11.76c-13.92,0-27.84,0-41.76,0Z" transform="translate(-172.39 -23.07)"/><path id="mercury" d="M239.71,356.78h8.47c13.92,0,27.84,0,41.76,0,7.48,0,12.66-4.9,12.66-11.76s-5.13-11.69-12.65-11.7q-22.56,0-45.13,0H240V304.8h4.75q22.35,0,44.71,0c8,0,13.11-4.63,13.14-11.65s-5.1-11.84-13-11.89c-14.9-.1-29.8,0-44.71,0H240V253h4.52c15.33,0,30.65.05,46,0,6.46,0,11.22-4.24,12-10.23A11.59,11.59,0,0,0,294.38,230a21.38,21.38,0,0,0-5.83-.54c-16,0-32,0-48.45,0v-28.2c1.52-.07,3-.2,4.49-.2,15.32,0,30.65.09,46-.08,9.17-.11,14.76-8.84,10.9-16.76-2.33-4.79-6.46-6.77-11.7-6.77q-22.35,0-44.71,0h-5V149.23h6.82c14.49,0,29,.12,43.45-.08,9.09-.13,14.73-8.37,11.33-16.27-2.09-4.87-5.94-7.24-11.31-7.23-15.18,0-30.37,0-45.55,0h-4.75c-1.19-22.36-1.91-44.1,15.31-61.55a56.81,56.81,0,0,1,62.28-12.63c21.18,8.63,34.45,28.73,34.46,52.37q0,146.37-.09,292.75c0,6.46,2,11,7.12,15.15a99.37,99.37,0,0,1,29.48,115.07,100.43,100.43,0,0,1-101.92,62C246.62,585.24,212,557,200.15,518.2a99.32,99.32,0,0,1,32.78-106.65c4.87-3.9,7-8.23,6.88-14.41-.29-11.81-.09-23.62-.1-35.44Zm59.41,208.68a76.52,76.52,0,0,0,73.32-74.85c.13-7.6-4.36-12.9-11.2-13.2-7.2-.3-11.5,4.6-12.51,12.36-.94,7.29-2,15-5.06,21.51-9.08,19.27-24.8,29.55-46.23,30.63-8.7.43-14.1,5.75-13.21,13.35C285,562.1,290.43,565.8,299.12,565.46Z" transform="translate(-172.39 -23.07)" fill="#fff"/><path id="reflection" d="M299.12,565.46c-8.69.34-14.09-3.36-14.89-10.2-.89-7.6,4.51-12.92,13.21-13.35,21.43-1.08,37.15-11.36,46.23-30.63,3.08-6.53,4.12-14.22,5.06-21.51,1-7.76,5.31-12.66,12.51-12.36,6.84.3,11.33,5.6,11.2,13.2A76.52,76.52,0,0,1,299.12,565.46Z" transform="translate(-172.39 -23.07)"/></svg>