<svg xmlns="http://www.w3.org/2000/svg" viewBox="0 0 1067.85 872.35" fill="#fff"><g id="Layer_1" data-name="Layer 1"><path d="M808.31,545.7l-4.22-5.29c-7.77,6.84-15.44,13.35-22.84,20.16-9.12,8.38-11.4,19.9-13.41,31.33-1.5,8.51-2.24,17.15-3.53,27.48-2.45-4-4.2-6.83-6.22-10.13a87,87,0,0,0-12.79,21.93c-3.58,8.8-1.14,16.38,2.49,24.26,2.4,5.22,4.07,10.78,6.09,16.18,3.09,8.3,1.32,16.2-2.61,23.59-4.7,8.83-9.83,17.46-15.11,26-1.6,2.58-2.17,4.64-.94,7.46,13.87,31.9,13.35,63.92,0,95.75A104.85,104.85,0,0,1,722.87,846a114.16,114.16,0,0,1-37.43,32.45c-12.27,6.73-25.11,10.09-38.67,11.59-3.47.39-4.52,1.59-4.85,4.88-1.37,13.72-3,27.42-5.13,41.24l-5-45.12c-7-1.24-13.74-2.2-20.33-3.65-17.57-3.87-32.87-12.77-45.59-24.85a117.94,117.94,0,0,1-27.24-133.24c1.35-3.12,1.11-5.42-.81-8.41-5.07-7.83-9.54-16-14.28-24.1-6.23-10.57-5.58-21.41-1.27-32.36,1.31-3.32,2.77-6.6,4.37-9.79,3.68-7.32,5.46-14.37,2.31-22.79s-7.72-15.63-12.83-22.81l-5.49,9.19-1-.46c-.92-7.69-1.48-15.45-2.88-23.06a200.46,200.46,0,0,0-5.6-22.21c-2.59-8.42-10-13-16-18.67-4.79-4.46-9.64-8.85-14.85-13.63l-4.1,5c-7.75-6-11-14.6-12.36-32.94h-6.86c9.88-12.94,15.39-26.79,15.06-43.67-19,11.64-37.05,24.37-61,20.69l2.55-5.31-41.51,6.59-.58-1.69,8.63-8.22H332.53l6.41-4.53c-27,1.29-51-3.79-71.84-23,42.55-4.28,79.58-18.74,109.81-48.49-5.27,1.74-10.5,3.61-15.82,5.18-11.6,3.42-23.3,6.5-34.86,10.05-32.88,10.1-66.58,13.53-100.81,12.25-16.59-.63-33.24-2.62-48.48-9.27-12-5.24-24.17-11.51-34.14-19.84-20.13-16.82-30.93-39.63-36-65.23C99.62,301,102.75,265.69,120.29,232a212.69,212.69,0,0,1,25-37.71,227.44,227.44,0,0,1,40.7-39c8.62-6.3,17.06-12.9,26.13-18.49,12.11-7.46,24.51-14.55,37.23-20.91,12.56-6.28,25.71-11.37,38.53-17.14,22.94-10.33,47.49-15.16,71.67-21.38C395.93,68,433,65.43,470.32,64.07a6.68,6.68,0,0,1,3.52.63c-10.89,2.48-22,4.29-32.63,7.58C419,79.17,396.84,86.35,375,94.41c-12.68,4.68-24.84,10.93-36.85,17.19s-23.87,12.47-34.78,20.16c-17,12-34,24.36-49.52,38.18-17,15.12-31.8,32.6-42.11,53.2-8.47,16.9-14,34.6-9.06,53.7,5.88,22.61,22.09,35.58,42.47,45,26.19,12.14,53.52,11.83,80.51,6.31,23.69-4.84,46.83-12.69,69.84-20.36,13.29-4.44,26-10.84,38.67-16.93,14.22-6.82,28.16-14.25,42.17-21.53a28.63,28.63,0,0,0,4.52-3.53c-.78-4.25-1.52-8.3-2.37-13,2.54,0,4,0,5.5,0,18.76.15,32.36-10.55,44.82-22.46,10.47-10,21.46-17.68,36.5-17.84,5.28-.06,10.56-.47,15.84-.54,12.58-.16,24.4-4.11,36.31-7.37,13.39-3.67,26.6-3.94,39.79.31,18.47,5.95,37.54,7.55,56.77,8.2,12.35.43,21,8.13,29.8,15.43,6.78,5.6,13.56,11.2,20.58,16.48,8.81,6.65,19.17,8.08,31.09,7.67-.78,4.5-1.46,8.5-2.31,13.47a110.88,110.88,0,0,0,9.64,5.71c23.33,11.07,46.82,21.78,70,33.06,18,8.76,37.37,13.23,56.39,18.94a177.62,177.62,0,0,0,72.08,6.09,91.11,91.11,0,0,0,49.78-21.67c21.93-19,27.39-41.42,17.15-71.18-5.54-16.1-14.78-30.09-25.61-43.2-11.85-14.34-24.83-27.41-39.73-38.53-8.84-6.58-17.56-13.36-26.76-19.39-10.63-7-21.51-13.63-32.7-19.62a410.4,410.4,0,0,0-38.43-18.58Q878.72,87.1,851.59,78.33c-16.86-5.46-34.12-9.69-51.35-14.5,11.46.51,23,.39,34.39,1.67,23.7,2.67,47.58,4.79,70.89,9.55,23.75,4.84,47.12,11.88,70.24,19.28,15.14,4.85,29.73,11.59,44.18,18.32a327.27,327.27,0,0,1,33.58,18.15c18.79,11.57,37,24.22,52.84,39.57a280.26,280.26,0,0,1,32.6,37c29.11,40.38,38.9,85.14,27.44,134.06-5.27,22.49-14.28,42.91-32.06,58.49a133.16,133.16,0,0,1-15.93,12.43c-23.14,14.72-49,19.4-76,20.09a322.91,322.91,0,0,1-87.64-10.1c-17.91-4.52-35.39-10.75-53.06-16.22a17,17,0,0,0-4.49-1,170.38,170.38,0,0,0,50.22,33.35c18.75,8.25,38.45,11.62,59.24,14.95-20.53,18.93-44.57,24.07-71.57,22.72l5.87,4.07c-12.63,2.64-24.76,1.92-37.48.15l9.71,8.95c-15.13.61-29-2.07-43.41-6.75,1.34,2.74,2.2,4.5,3.24,6.65-11.44,2.33-22.05.1-32-4.44s-19-10.14-29.05-15.59c-.07,16.17,5,30.11,15.14,42.94h-7C820,524.49,817.73,536.14,808.31,545.7ZM586.17,449.4A26.75,26.75,0,0,0,597,430.16c2.4-22.53-5.86-40.61-23.48-54.51-7.18-5.67-14.67-10.94-22-16.4s-14.31-10.82-19-19c-6-10.55-4.9-22.42,4.22-30.7-.83,1.68-1.24,2.55-1.67,3.41-5.17,10.2-4.57,19.86,3.46,28.27a107,107,0,0,0,13.72,11.86c9.82,7.26,20.35,13.6,29.76,21.33,14.57,12,23.18,27.47,23.43,46.75.06,4.54,2.42,6.76,6,7.6,3,.69,6.2.14,9.32.14-7.24-5-11.38-11.92-14.3-19.55-2.53-6.59-3.61-13.35-1.25-20.45A149,149,0,0,0,610,370.66c4.24-21.91,4.73-43.39-8.27-63.09a15.43,15.43,0,0,1-1.28-3.51l1.45-.68c3.81,7.49,8.4,14.7,11.26,22.53,6.29,17.25,4,34.87,1,52.49-1.3,7.75-4.85,15.15-2.81,23.51,2.32,9.46,7.5,17.51,16.17,20.15,9.18,2.8,19.55,3.2,27.49-5.6,6.24-6.91,9-14.76,8.11-23.77-.52-5.21-2.28-10.29-3.23-15.47-3.24-17.59-4.85-35.24,1.39-52.48,2.22-6.15,5.94-11.75,9-17.6-2.3,9.26-5.92,17.88-7.64,26.87-3.46,18,.48,35.69,5.67,52.85,3.5,11.55,1.12,21.5-5.14,30.93-2.68,4-6.37,7.42-9.82,11.34,2.92,0,5.88.48,8.59-.12,3.27-.72,6.66-2,6.69-6.44.1-22.67,11.17-39.41,28.78-52.41,7.9-5.84,16.3-11,24.19-16.84A108.19,108.19,0,0,0,736,340.76c7-7.43,8.06-16.22,4.06-25.6-.57-1.34-1.11-2.69-1.67-4a19.52,19.52,0,0,1,7,14.17c.57,9.18-3.46,16.83-9.66,22.75-7.7,7.34-16.55,13.47-24.8,20.25-6.53,5.36-13.2,10.58-19.28,16.42-12.82,12.33-15.93,28.11-14.56,45.06a26.3,26.3,0,0,0,11.79,20.17c3.4-6.39,6-13.16,10.2-18.72,6.33-8.36,13.66-16,20.79-23.7,6-6.49,12.48-12.51,18.38-19.07,7-7.76,11.14-16.37,5.58-26.86-.06-.11.3-.43.73-1a30.13,30.13,0,0,1,2.21,3.42c4.83,10.41,1,19.41-5.28,27.49-5.81,7.49-12.6,14.21-18.67,21.52s-12,14.32-17.19,22.08a47.55,47.55,0,0,0-7.77,24.38,16.92,16.92,0,0,1,2.79-2.18c13.06-5.75,18.94-16.33,22-29.82,3.38-14.84,13.35-25.18,26.48-32.63,5.18-2.94,10.62-5.76,15-9.7,4.14-3.75,9.46-7.65,8.33-14.81.53,3.48,1,7.23-.4,10a33.2,33.2,0,0,1-8.15,9.44c-7,5.86-14.36,11.33-21.67,16.83-8.7,6.56-13.81,15.31-14.16,26-.37,11-5.95,17.95-14.78,23.34-3.57,2.18-6.59,5.27-10.18,7.43-7.94,4.77-11.2,11.76-10.08,20.69.66,5.29,2.1,10.48,3.44,16.93,2-2.49,2.94-4,4.18-5.25,4.81-4.86,9.74-9,17.22-9.88,12.88-1.54,21.58-10.72,30.87-18.64,1.86-1.59,4.12-3.32,6.4-3.7,7.75-1.28,14.27-5.07,20.77-9.05,6.17-3.78,10.15-8.88,10.6-16.41.2-3.35.84-6.68,1.27-10l.81-.09,1.32,13.3a75.49,75.49,0,0,0,2.71-10.67c1.48-7.15,2.6-14.41,4.62-21.4,2.59-9,9.36-13.6,18.46-14.4,10.61-.94,20.65.79,29,8.11,7.51,6.57,15,13.21,22.55,19.69,4.66,4,9.5,7.76,14.27,11.62l.66-.81-3.42-7a7,7,0,0,1,3.39,1.45c8.33,5.52,16.2,12,25.13,16.27,10.37,5,21.6,8.23,32.63,11.69,7.88,2.47,16.05,4.05,25.34,6.33-25.59,2.67-48.65-3.36-72.11-9.51l11,12.39c-12.14-2.71-20.91-10.77-31.5-18.4l3.65,10.34c-9.22-3.58-14.82-10.64-21.39-16.34-5.52-4.8-11.93-6.43-18.86-7.34l5.09,14.95c-4.71-1.61-8.33-3-12-4.07-5.83-1.73-11.86-2.72-17.34.6-1.92,1.16-3.48,3.88-4,6.17-1.07,4.58,1.14,8.36,5,10.78,9.75,6.13,19.32,12.66,29.58,17.8,6.15,3.09,13.45,3.88,20.46,5.76V473.17c11,3.51,20.68,9.47,32.51,9.14l-5.63-11.51,33.53,5.28-3.29-5.76c3,.22,5.13.43,7.28.53,19.57.94,38.9.13,57.14-8.15,2.63-1.2,5-3,8.71-5.29-3.56-.83-5.36-1.23-7.15-1.68-17.28-4.32-34.34-8.88-50.64-16.68a255.29,255.29,0,0,1-48.87-31.12c-2.13-1.69-4.29-3.36-6.36-5.14-9-7.7-17.52-16-27-23-11.8-8.65-25.65-12-40.19-10.62-9.66.93-17.91,5.31-23.1,14-3.41,5.75-6.62,11.63-10,17.57,1.1-12.35,5-23.54,13.16-33.49l-5.85-.61,10.83-9.48L789.48,356c3.25-3.79,5.35-7.09,8.25-9.37s2.64-4,.53-6.19a20.52,20.52,0,0,0-4.11-3.81q-7-4.12-14.36-7.77c-4-2-3.45-4.2-.54-6.41,2.51-1.92,5.33-3.43,8.38-5.36-8-3.56-17.77,1.45-25.09-5.72,4-2.11,8.93-2,10-6.8l-7.06-4.22,11.83-6c-11.79-3.46-13.41-4.64-16.13-11.08,7.94,1.77,16,5,23.42-.91-2.09-4.07-3.84-7.49-5-9.77,2.94-4.77,5.22-8.5,7.86-12.79L775.34,257c-11.68-2.68-20.57-10.2-29.71-17.23-5-3.81-9.48-8.17-14.35-12.1-9.53-7.69-21.06-9.2-32.7-10-15.47-1-30.85-2-46.1-5.6-8.12-1.93-17.07-1.57-25.5-.78-14.72,1.36-29.31,3.92-44,5.85-7.43,1-15,1.31-22.33,2.56-8.19,1.39-14.8,5.68-21.3,11.08a273.93,273.93,0,0,1-32.72,23.13c-5.46,3.32-12.48,4.07-19.42,6.17,1.26,2.53,1.87,5.88,3.87,7.41,5.44,4.17,2.43,7.73.09,11.59-.6,1-1.16,2-1.86,3.19,7.9,6.08,16,2.58,24.07.92-2.64,7.24-9,8.84-15.29,12l10.6,5.16-8.35,4.94,10.77,6.49c-6.87,6.8-16.62,1.78-24.94,5.54,4.76,2.69,10,3.83,11.22,9.78-3.31,1.72-6.57,3.19-9.6,5.05a110.81,110.81,0,0,0-11.33,7.72c-2.84,2.26-3.25,4.55.4,7.22,2.81,2.06,4.67,5.43,7.53,8.92l-8.07,1.39,11.3,9.74H481.1a57.73,57.73,0,0,1,13.13,34.09,53.2,53.2,0,0,1-2.59-5.45c-4.82-10.54-10.5-20.24-22.19-24.71-8.88-3.39-17.77-2.17-26.71-.61-14.23,2.49-24.72,11.52-35.33,20.31-12.78,10.59-24.73,22.46-38.57,31.42-14.72,9.52-30.86,17.17-47.07,24-12.3,5.15-25.7,7.68-39,11.49.78.89,1.44,2.2,2.49,2.77,21.5,11.58,44.79,11.55,68.66,10.09l-2.42,5.6,32.9-5.3-5.33,11.32,1,1.53,31.44-10.12v10.95c1.67-.16,3.31-.26,4.94-.48,14.07-1.93,25.57-9.65,37.34-16.71,2.9-1.75,5.5-4,8.23-6.05,4.35-3.22,6.25-8.06,4.06-12.49-1.38-2.8-6-5.54-9.2-5.57-6-.06-11.95,1.82-17.91,3a52.86,52.86,0,0,0-6,2.09c1.93-5.72,3.46-10.22,5-14.72l-.69-1.35c-5.81,2.53-12,4.44-17.31,7.8-4.79,3-8.43,7.83-12.86,11.5-2.58,2.15-5.71,3.62-9.39,5.89l3.63-10.3c-5.93,4-10.68,7.53-15.71,10.57-4.76,2.89-9.81,5.29-14.73,7.9l-.41-1,10.56-12c-23.58,6.16-46.69,12.37-71.07,9.26,30.77-6.16,60.54-14.54,84.7-36.52l.64,1.22c-1,2.19-2,4.38-3,6.56a39.45,39.45,0,0,0,10-6.55c7.07-6.33,13.8-13.05,21-19.26,7.37-6.38,15.42-11.73,25.6-12.5,16.84-1.28,25.65,3.12,29.92,19.8.67,2.63,1.09,5.33,1.55,8,1.06,6.14,2.08,12.29,3.12,18.44l.8-.16,1.26-12.51a7.28,7.28,0,0,1,1.28,3.91c1,8.34,1.85,16.88,10.47,21.46,5.77,3.07,11.47,6.56,17.63,8.49a34.06,34.06,0,0,1,13.49,7.46c9.47,8.65,19.48,16.51,33.22,17.16,1.51.07,3.13,1.33,4.39,2.41,3.86,3.33,7.58,6.84,11.79,10.68,1.19-5,2.72-9.75,3.37-14.59,1.17-8.71-1.11-16.09-9-21.21-5.39-3.48-10.39-7.56-15.59-11.33-5.95-4.31-9.59-9.6-9.95-17.41C546,423.24,541.18,413,531,405.7c-6.32-4.54-12.37-9.45-18.49-14.26a68.27,68.27,0,0,1-7.8-6.55c-4.58-4.85-5.14-9.62-2.93-13.07,1.18,2.53,1.91,6.56,4.31,8.74a102.82,102.82,0,0,0,18.09,13.67c14.87,8.46,25,20.34,28.57,37.11,2.35,11.17,7.85,19.37,18.22,24.27a48.86,48.86,0,0,1,5.56,3.7c-1.15-10.65-4.37-20-10.51-28.17-5.41-7.16-11.4-13.89-17.19-20.76s-11.6-13.31-17.09-20.2c-4.48-5.62-6.94-12.25-6.26-19.45.32-3.38,2.27-6.61,3.47-9.91l1.53.48c-2.34,5.41-4.52,11-1.24,16.56,2.64,4.5,5.36,9.11,8.86,12.93,6.87,7.5,14.36,14.45,21.5,21.71a69.52,69.52,0,0,1,7.78,8.71C573.78,430.48,579.9,440,586.17,449.4Zm-53,80.63c17.66,4.22,29.16,4.32,41.93.35,3.81-1.18,5.25-3.29,3.79-7.69-14.86,2.26-29.56,2.93-43.61-3.47,12.88,1.84,25.68,2.46,38.44-2a13.77,13.77,0,0,0-6.08-2.46c-4.4-.43-8.87-.16-13.25-.7-12.41-1.52-23.43-6.1-31.58-16-7.33-8.88-12.25-19.1-15.9-30-.51-1.53-2.08-2.71-3.17-4.06-1.14,16.3,5.24,29.35,14.44,41.48-3.25-2.06-6.55-4.06-8.86-6.86-8.59-10.39-12.63-22.69-14.79-35.85-.5-3.05-2.22-6.79-4.61-8.49-8-5.67-15.59-11.18-13.37-23-7.89,13.62,1.43,26.73.16,41.29l-4.27-7.78-1.45.22c-1,4.08-2.08,8.15-3,12.24-1.83,7.95-2.74,16.23-5.56,23.8-4.65,12.47-3,23.86,2.52,34.71L475.05,527c1.21,11.25,8.17,16.44,15.46,21.45,2.91,2,6.09,3.94,8.24,6.64,8.83,11,11.76,24.29,13.46,37.92.28,2.23.35,4.48.62,8.23l4.34-6.18c20,21.27,29.51,55.94,19.83,80.19q-1.07-7.82-2.12-15.65c-6.64,6.72-9.76,14.79-8.1,23,2.57,12.78,10.25,23.47,17,34.39l20.76-26.21c-5.59-6.17-15.07-10-16.19-18.8,6,4.24,12.69,9,19.48,13.69a59.24,59.24,0,0,0,5.45,2.77c9.64,5.28,19.31,10.48,28.86,15.92a188.68,188.68,0,0,1,18.48,11.41,23.32,23.32,0,0,1,9.49,16.82c-5-8.44-11.4-15-20.89-17.58l5.7,19.25-1.56.76c-3.79-11.39-12.14-19.12-20.65-26.67-1-.88-3.71-1.41-4.42-.77-9.62,8.69-18.2,18.21-23.8,30.15-1.54,3.26-.68,4.39,2,6.41,8.31,6.29,17.14,3,25.93,2.41,7.37-.46,14.78-.17,22.17-.22,7.73-.06,16.26,6,22.2-2.53,2.48,1.57,4.61,4,6.82,4.1,5,.19,10.14-1.08,15.23-1.24,7.69-.24,15.4-.28,23.09,0,8.61.33,17.29,3.73,25.49-2.39,2.91-2.17,3.73-3.38,2.1-6.81-5.63-11.91-14.28-21.36-23.86-30.09a3.52,3.52,0,0,0-3.43.07C675.27,714.55,667,720.54,663,730.2a41.38,41.38,0,0,1-2.73,4.78l-1.14-.49c1.9-6.42,3.8-12.83,6.13-20.67-4.78,3-9.1,5-12.53,8s-5.91,7-9.32,11.21c1.83-8.92,6.13-15.39,13-19.63,11.07-6.83,22.32-13.41,33.81-19.5,12.51-6.61,26-11.65,35.83-22.73A44.9,44.9,0,0,1,719,682.51c-3,3.26-6.63,5.86-9.89,8.67,4.15,4.51,8.08,8.33,11.46,12.59s6,8.76,9.06,13.3c6.18-7,17.14-26.82,17.89-34.7a31.31,31.31,0,0,0-6.73-22.76l-1.53.2-2.1,15.89c-10.47-27.52,2.32-63.24,20.07-80.6l3.25,5c1.88-9.14,3.17-17.84,5.53-26.24,2.92-10.44,7.57-19.87,17.75-25.68,7.67-4.36,14.25-10.08,15.29-21.37l10.13,9.05c5-9.51,7-19.69,4.07-30.66-2.47-9.18-4.61-18.45-6.92-27.67-1-4.21-2.16-8.4-3.25-12.59l-1.44-.07-3.51,6.81-1.43-.36c1.17-6.62,2.13-13.28,3.57-19.84,1.51-6.88.54-13.34-2-19.74a11.33,11.33,0,0,0-.78,3.9c-.19,6.68-2.2,12-8.84,15.22-5.91,2.9-9,7.88-9.75,15a61.11,61.11,0,0,1-14.06,32.83c-2.31,2.74-5.54,4.72-8.35,7.05,9-12.48,15-25.6,14.69-41.37a8,8,0,0,0-3.71,3.27c-1.61,3.55-2.67,7.36-4.24,10.94-7.92,18-19.52,32-40.34,35.1-5.37.81-10.87.61-16.29,1.16-2,.2-4,1.21-5.94,1.85l.42,1.49c12.12,3.53,24.47,2.74,36.94,1.86-6.91,2-13.87,3.73-20.89,4.11-7.22.39-14.51-.54-21.93-.89-1.36,3.65-.19,6,3.49,7s7.29,1.75,11,2.39c10.76,1.86,21.25.2,31.84-2.23-6.05,3-12.2,6.23-18.66,7-8.19,1-16.67.49-24.94-.26-4.12-.37-5.86.94-6.4,4.42-.67,4.34.12,9.21-1.58,13a47.82,47.82,0,0,0-4.06,25.36l-1.62,0c-.75-7-1.49-14-2.28-21.37-6.87,1.13-11.47,6-15.94,11.23,3.07-8.48,9.12-14.62,15.43-20.52,2.86-2.68,4.51-5.43,4.53-9.69A67.1,67.1,0,0,1,688.11,523a60.73,60.73,0,0,0,0-30.79c-.37-1.52-2.25-2.67-4.3-5,1.3-8.92,10.07-19,2-30.2l-4.35,7.85c-4.14-11.25-8-21.66-11.36-30.84-7.35-.47-14.2-.94-21.06-1.34a125.39,125.39,0,0,0-13.12-.56c-10.54.49-21.07,1.32-32,2-3.36,9.16-7.17,19.54-11.26,30.71l-4.41-7.82c-8.12,11.3.72,21.37,1.49,31.4-1.75,1.21-3.54,2.63-3.95,4.38-2.49,10.42-2.76,20.85.59,31.23a25.34,25.34,0,0,1,1.52,8.51c-.34,8.66,1.57,15.88,9.39,21,3,2,4.94,5.54,7.1,8.57a72.69,72.69,0,0,1,3.94,7c-4.9-4.76-9.21-9.62-16.1-10.4-.73,6.89-1.41,13.3-2.08,19.72-2.73-11.83-4.78-23.4-6.87-35a33.37,33.37,0,0,0-1-3.43c-.81-2.73-2.36-3.47-5.36-3.09-5.9.75-11.88,1-17.84,1.17A41.53,41.53,0,0,1,533.16,530ZM636.78,883.55a93.51,93.51,0,0,0,28.9-4.82c21.85-7.15,39.1-19.74,52.38-38.45,14.91-21,21.33-44.33,20.07-69.77-1.39-28-12-52.09-31.67-72.09-3.58-3.63-6.86-3.19-9.37,1.17-2.15,3.73-2.31,7.54.94,10.76,16.63,16.49,25,36.74,26.39,59.78,2.52,41.13-18.37,76-54.59,92.14-23.51,10.46-47.75,9.6-71.25-3.06-25.77-13.87-41.34-35.13-47-63.26-6.39-31.81,1-60.41,23.4-84.59a15.42,15.42,0,0,0,2.7-3.6c1.78-3.62.22-8.47-3.06-10.82-3.63-2.6-5.63,0-7.75,2.22-14,14.32-23.65,31.16-27.87,50.7-9.75,45.12,2.7,83.45,38.27,112.83C594,876.53,614.56,883.43,636.78,883.55Zm-.66-67c5.53-2.85,10.25-5.78,15.34-7.75,4.4-1.7,9.35-1.95,13.84-3.48,5.37-1.82,11.07-3.52,15.64-6.7,9.12-6.34,15-15.54,19.33-25.73,2.59-6.17.88-11.55-5.31-13.75-18.35-6.53-37-8.62-56-2.6a5.17,5.17,0,0,1-3.27.22c-11.1-4.81-22.76-4-34.23-2.88A103.55,103.55,0,0,0,579.65,759c-6.6,2.19-8.65,7.68-5.75,13.88A98.88,98.88,0,0,0,582,787.46c7.66,11,18.62,16.71,31.72,19.08C622.26,808.08,630.91,809.85,636.12,816.53Zm-75.58-66c-9,22.88-4.66,54.82,12.18,77.69,13,17.66,30,29.31,53.95,32l-12.6-33.1-2.56,0-8.19,16.79a7.56,7.56,0,0,1-.45-1.24,93,93,0,0,0-17.64-36.87c-7.36-9.37-12.77-20.29-18.86-30.64-3.32-5.64-1.94-11.11,1.47-16.26.7-1.06,1.53-2,2.51-3.31Zm142.94,5.11c7.32,7.48,7.46,15,2.71,23-3.9,6.54-7.35,13.43-11.83,19.56-10.35,14.15-21.26,27.9-23.5,45.93l-8.43-16.52-2.5,0L647.69,860c50.66-4.74,82.78-63.53,65.84-109.41ZM754.9,470.54c-.32.06-.73,0-.95.19a30.1,30.1,0,0,0-2.66,2.38c-8.43,8.81-18.52,15-30.38,17.67-7.67,1.72-10.87,7.16-14.16,13.24C728.53,509,754,491.08,754.9,470.54ZM519.13,470c.91,21.68,28.37,39.38,48.13,33.79-3.27-6.59-7.34-11.6-15.27-13.49-6.33-1.51-12.5-4.61-18.08-8.06C528.69,479,524.34,474.42,519.13,470Z" transform="translate(-103.22 -63.83)"/><path d="M709.49,678.29l6.07-18.16-1.37-.34c-5.33,3.09-10.64,6.2-16,9.25a24.38,24.38,0,0,1-4.87,2.44,108.71,108.71,0,0,1-11.87,3c-23.82,4.25-37.07,19.1-42.51,41.92-.42,1.76-1,3.49-1.8,6.5-1.61-5.15-2.85-9.12-4.1-13.09-5.41-17-15.8-29-33.75-33.47-3.14-.77-6.2-1.92-9.37-2.51-11.14-2.07-20.75-7.11-29.94-15.15-1,8.49,2,14.89,7.1,20.86-9.8-3.12-15.58-19.1-10.57-32.4a80.07,80.07,0,0,0,4.93,6.35c7.12,7.5,16.45,10.5,26.17,12.9a211.6,211.6,0,0,1,22.79,6.8c9.11,3.36,16.81,8.84,21.86,17.49,1.27,2.18,2.92,4.12,4.77,6.69a82.86,82.86,0,0,0,4.84-6.74c4.53-7.87,11.37-13.13,19.54-16.42A153.11,153.11,0,0,1,684,667c13.21-3.05,25.74-6.82,33.13-19.69C722.92,658,717.38,675.58,709.49,678.29Z" transform="translate(-103.22 -63.83)"/><path d="M709.67,638c-13.53-5-21.9,3.57-30.63,11.28-5.7,5-11.26,10.25-17.32,14.8-4.77,3.59-10.43,2.93-16.21,2.13a56.46,56.46,0,0,0-17,0c-6.82,1.15-13,.74-18.39-3.55s-9.93-9.18-15.16-13.45c-4.84-4-9.67-8.41-15.28-10.85-4.43-1.91-10-1.09-14.39-1.43,3.71-2.93,9.36-4.78,14.7-2,7.88,4.17,16.14,8.56,22.32,14.76,8.31,8.33,16.21,13.29,28.33,9A21.35,21.35,0,0,1,644,659c11.57,4.21,19.36-.9,27.39-8.25a121.53,121.53,0,0,1,20.82-15C698,632.3,704.24,633.46,709.67,638Z" transform="translate(-103.22 -63.83)"/><path d="M491.12,530.16c5.57,15.66,22.31,18.34,33.22,28.4l-2.67-12.48c15.48,20.74,23.8,43.67,21.56,69.86-.74-4.06-1.35-8.15-2.26-12.17-3.67-16.26-11.72-29.82-24.7-40.5-5.88-4.83-11.34-10.17-16.8-15.48C494.62,543.06,491.41,537.38,491.12,530.16Z" transform="translate(-103.22 -63.83)"/><path d="M752.38,546.31c-.86,4-1.71,8.08-2.64,12.5,6.54-4.26,12.88-7.76,18.46-12.21s10.37-9.85,14.85-14.2c-.33,5.11-3.51,10.4-7.95,14.94s-9,9.29-14.05,13.21c-17.38,13.45-27.18,31-29.52,52.74a3.49,3.49,0,0,1-1,2.2C728.58,589.59,737.16,566.94,752.38,546.31Z" transform="translate(-103.22 -63.83)"/><path d="M573.34,601.28c5.24-5.74,8.85-6.86,14.78-4.39a79.85,79.85,0,0,1,11.23,6c6.63,4.14,13.66,5.37,21.47,5a326.41,326.41,0,0,1,32.66,0,36.34,36.34,0,0,0,21.46-5.07,74,74,0,0,1,12.7-6.46c5.36-2,9-.28,12.45,4.6-7.66-4.27-10.62-3.92-17.85,1.61-9.43,7.21-19.84,11.64-32,10.51-6.35-.58-12.68-1.51-19-1.74-2.75-.1-5.51,1.49-8.31,1.77-10.3,1.05-19.2-3-27.76-8.06a33.63,33.63,0,0,1-3.26-2.47C584.68,597.05,582,596.77,573.34,601.28Z" transform="translate(-103.22 -63.83)"/><path d="M577.62,621.24c11.47-6.81,20.92-6,30,2.73,5,4.82,10.47,6.35,16.77,3.72a32,32,0,0,1,25.74.1c6.16,2.56,11.5.89,16.29-3.76,9-8.77,18.93-9.69,30-3.14-.27.11-.58.37-.79.31-11.1-3-20.84-2.41-28.94,7.59C661.5,635.17,652.9,635.7,645,632c-5.38-2.5-10.46-1.88-16.08,0-7.1,2.34-15.07,5.16-21-2.61C599.87,618.81,589.51,617.69,577.62,621.24Z" transform="translate(-103.22 -63.83)"/></g></svg>