<?xml version="1.0" encoding="utf-8"?>
<!-- Generator: Adobe Illustrator 24.2.3, SVG Export Plug-In . SVG Version: 6.00 Build 0)  -->
<svg version="1.1" id="Layer_1" xmlns="http://www.w3.org/2000/svg" xmlns:xlink="http://www.w3.org/1999/xlink" x="0px" y="0px"
	 viewBox="0 0 1125 885" style="enable-background:new 0 0 1125 885;" xml:space="preserve">
<style type="text/css">
	.st0{fill:#662D91;stroke:#FFFFFF;stroke-width:4.996;stroke-linejoin:round;stroke-miterlimit:10;}
	.st1{fill:#F7931E;stroke:#FFFFFF;stroke-width:4.996;stroke-linejoin:round;stroke-miterlimit:10;}
	.st2{fill:#0000FF;stroke:#FFFFFF;stroke-width:4.996;stroke-linejoin:round;stroke-miterlimit:10;}
	.st3{fill:#39B54A;stroke:#FFFFFF;stroke-width:4.996;stroke-linejoin:round;stroke-miterlimit:10;}
	.st4{fill:#336791;}
	.st5{fill:#FFFFFF;}
	.st6{fill:none;stroke:#FFFFFF;stroke-width:2.517;stroke-linecap:round;stroke-linejoin:round;}
	.st7{fill:#009DE4;}
	.st8{fill:#C5D101;}
	.st9{fill:#F17E14;}
	.st10{fill:#E02715;}
	.st11{fill:#666666;}
	.st12{fill:#C63D14;}
	.st13{fill:#F34F29;}
	.st14{fill:#F0DB4F;}
	.st15{fill:#323330;}
	.st16{fill:#3471A2;}
	.st17{fill:#FFD23F;}
	.st18{fill:#8149B2;}
	.st19{fill:#131313;}
	.st20{fill:#1572B6;}
	.st21{fill:#33A9DC;}
	.st22{fill:#EBEBEB;}
	.st23{fill:#E44D26;}
	.st24{fill:#F16529;}
	.st25{fill:#00FFFF;}
	.st26{fill:none;stroke:#FFFFFF;stroke-width:6;stroke-linejoin:round;stroke-miterlimit:10;}
	.st27{fill:none;stroke:#FFFFFF;stroke-width:6;stroke-miterlimit:10;}
</style>
<rect x="3" y="0.9" class="st0" width="1125" height="884.1"/>
<rect x="3" y="0.9" class="st1" width="1125" height="220.1"/>
<rect x="3" y="222.9" class="st2" width="1125" height="220.1"/>
<rect x="3" y="444.9" class="st3" width="1125" height="220.1"/>
<g>
	<path d="M961.1,555.6c0.5-4.7,0.3-5.4,3.4-4.7l0.8,0.1c2.4,0.1,5.4-0.4,7.3-1.4c3.9-2.1,6.2-5.6,2.4-4.6c-8.8,2.1-9.4-1.3-9.4-1.3
		c9.3-15.8,13.1-35.9,9.8-40.8c-9.1-13.4-24.9-7.1-25.2-6.9l-0.1,0c-1.7-0.4-3.7-0.7-5.9-0.7c-4-0.1-7,1.2-9.3,3.2
		c0,0-28.1-13.3-26.8,16.8c0.3,6.4,8,48.5,17.2,35.8c3.4-4.6,6.6-8.6,6.6-8.6c1.6,1.2,3.5,1.9,5.6,1.6l0.2-0.2c0,0.6,0,1.1,0.1,1.8
		c-2.4,3-1.7,3.6-6.4,4.7c-4.8,1.1-2,3.2-0.1,3.7c2.2,0.6,7.4,1.5,10.9-4.1l-0.1,0.6c0.9,0.9,0.9,6.1,1,9.9c0.1,3.8,0.4,7.3,1,9.4
		c0.7,2.1,1.5,7.4,7.7,5.9C956.7,574.6,960.7,572.7,961.1,555.6"/>
	<path d="M949.5,579.6c-2.8,0-4.5-1.2-5.6-2.4c-1.6-1.8-2.3-4.1-2.7-5.5l-0.2-0.6c-0.8-2.4-1-5.9-1.2-10.5c0-0.7,0-1.4-0.1-2.1
		c0-0.5,0-1.2-0.1-1.9c-1,0.5-2,0.9-3.1,1.1c-1.9,0.4-4,0.3-6.2-0.4c-1.5-0.4-3.1-1.4-4-2.8c-2.6,2.7-5.2,2.3-6.5,1.8
		c-2.4-0.9-4.6-3.5-6.6-8c-1.5-3.2-2.9-7.3-4.2-12.3c-2.3-8.7-3.8-17.8-3.9-20.8c-0.4-9.4,1.8-16.1,6.5-19.9
		c7.5-6.1,18.8-2.5,22.9-0.9c2.8-1.9,6-2.9,9.7-2.8c2,0,3.9,0.2,5.6,0.6c1.8-0.7,5.4-1.6,9.6-1.6c7.6,0.1,13.9,3.5,18.2,9.9
		c3.1,4.5,1.6,14,0.4,19.3c-1.7,7.4-4.6,15.3-8.2,22.2c1,0,2.4-0.1,4.4-0.6c4-0.9,5.1,1.5,5.4,2.6c1.3,4.4-4.2,7.7-5.9,8.6
		c-2.2,1.2-5.7,1.9-8.7,1.7l-0.1,0l-0.8-0.1l-0.1,0.7l-0.1,0.7c-0.2,8.7-1.3,14.2-3.5,17.8c-2.3,3.8-5.6,4.9-8.4,5.6
		C951.2,579.5,950.3,579.6,949.5,579.6L949.5,579.6z M943.7,547.9c1.8,1.6,1.9,4.7,2.1,10.5c0,0.7,0,1.4,0.1,2
		c0.1,1.9,0.2,6.4,0.8,8.3c0.1,0.3,0.2,0.5,0.2,0.8c0.7,2.4,1,3.6,4,2.9c2.5-0.6,3.7-1.2,4.7-2.8c1.4-2.4,2.3-7.1,2.4-14.2l3,0.1
		l-3-0.4l0.1-0.9c0.3-2.8,0.5-4.9,2.1-6.2c1.3-1.1,2.8-1,4-0.7c-1.3-1.1-1.7-2.5-1.8-3l-0.3-1.4l0.7-1.2c4.1-6.9,7.4-15.5,9.2-23.4
		c1.8-8.2,1.3-12.5,0.7-13.3c-7.4-10.9-20.2-6.4-21.5-5.9l-0.2,0.1l-1.1,0.2l-0.6-0.1c-1.6-0.4-3.4-0.6-5.3-0.6
		c-3-0.1-5.4,0.8-7.4,2.5l-1.4,1.2l-1.6-0.8c-3.4-1.6-13.4-4.8-18.7-0.5c-2.9,2.4-4.3,7.1-4,13.9c0.1,2.3,1.4,10.8,3.6,19.1
		c3,11.5,5.8,15.3,7,15.7c0.2,0.1,0.7-0.4,1.2-1.1c3.4-4.7,6.6-8.6,6.7-8.8l1.7-2.1l2.1,1.6c0.9,0.7,1.8,1,2.8,1.1l5-4.9l-0.7,8.6
		c0,0.2,0,0.5,0,0.9l0.2,1.6l-0.9,1.2l-0.1,0.1l2.8,1.5C942.5,549.6,943.7,547.9,943.7,547.9z"/>
	<path class="st4" d="M974.9,544.9c-8.8,2.1-9.4-1.3-9.4-1.3c9.3-15.8,13.1-35.9,9.8-40.8c-9.1-13.4-24.9-7.1-25.2-6.9l-0.1,0
		c-1.7-0.4-3.7-0.7-5.9-0.7c-4-0.1-7,1.2-9.3,3.2c0,0-28.1-13.3-26.8,16.8c0.3,6.4,8,48.5,17.2,35.8c3.4-4.6,6.6-8.6,6.6-8.6
		c1.6,1.2,3.5,1.9,5.6,1.6l0.2-0.2c0,0.6,0,1.1,0.1,1.8c-2.4,3-1.7,3.6-6.4,4.7c-4.8,1.1-2,3.2-0.1,3.7c2.2,0.6,7.4,1.5,10.9-4.1
		l-0.1,0.6c0.9,0.9,1.6,5.6,1.5,9.8s-0.2,7.2,0.5,9.5c0.7,2.3,1.5,7.4,7.7,5.9c5.2-1.3,7.9-4.6,8.3-10.1c0.3-3.9,0.9-3.4,0.9-6.9
		l0.5-1.7c0.6-5.3,0.1-7.1,3.3-6.3l0.8,0.1c2.4,0.1,5.4-0.4,7.3-1.4C976.4,547.5,978.7,544,974.9,544.9z"/>
	<path class="st5" d="M949.8,577.5c-5.2,0-6.8-4.7-7.5-6.7c-1-2.8-1.2-13.8-1-22.8c0-0.6,0.5-1.1,1-1.1c0.6,0,1,0.5,1,1.2
		c-0.3,10.4,0.1,19.8,0.8,21.9c1.1,3.3,2.9,6.1,7.7,4.9c4.6-1.1,6.4-3.2,7.1-8.3c0.6-4,1.8-15.2,1.9-17.4c0-0.6,0.5-1.1,1.1-1.1
		c0.6,0,1,0.6,0.9,1.2c-0.2,2.3-1.3,13.5-1.9,17.6c-0.9,6.1-3.3,8.8-8.7,10.2C951.4,577.4,950.6,577.5,949.8,577.5z M921.5,554.4
		c-0.5,0-0.9-0.1-1.3-0.3c-3.4-1.3-6.6-7.6-9.5-18.8c-2.3-8.5-3.7-17.4-3.8-20.2c-0.4-8.5,1.5-14.6,5.7-18c8.2-6.7,22-0.3,22.6,0
		c0.5,0.2,0.8,0.9,0.5,1.5c-0.2,0.6-0.8,0.9-1.3,0.6v0c-0.1-0.1-13.4-6.2-20.6-0.2c-3.5,2.9-5.2,8.3-4.8,16
		c0.1,2.4,1.4,11.1,3.7,19.7c2.6,10,5.6,16.2,8.2,17.2c0.4,0.2,1.6,0.6,3.4-1.8c3.3-4.6,6.4-8.3,6.4-8.4c0.4-0.5,1-0.5,1.4,0
		c0.4,0.4,0.4,1.2,0,1.6c0,0-3.1,3.7-6.3,8.2C924.3,553.8,922.8,554.4,921.5,554.4z M965.4,544.6c-0.2,0-0.4-0.1-0.6-0.2
		c-0.5-0.4-0.6-1.1-0.3-1.6c9.4-16,12.6-35.3,9.8-39.4c-3.5-5.2-8.5-7.9-14.9-8.1c-4.7-0.1-8.4,1.3-9,1.5l-0.2,0.1
		c-0.6,0.2-1.1-0.2-1.3-0.6c-0.2-0.5,0-1.2,0.4-1.5l0.3-0.1l0,0l0,0c1-0.4,4.8-1.7,9.5-1.7c7,0.1,12.8,3.2,16.7,9
		c1.9,2.7,1.9,9.1,0,17.3c-1.9,8.4-5.4,17.5-9.8,24.8C966.1,544.5,965.8,544.6,965.4,544.6z M965.9,552c-1.6,0-3-0.3-3.9-0.9
		c-0.9-0.6-1.1-1.4-1.1-1.9c-0.2-4.9,2.1-5.7,3.3-6.1c-0.2-0.3-0.4-0.6-0.6-1c-0.7-1-1.6-2.4-2.4-4.4c-0.1-0.3-0.5-1.1-0.9-1.9
		c-2.3-4.7-6.9-14.3-3.9-19.3c1.4-2.3,4.2-3.2,8.3-2.7c-1.2-4.2-6.9-17.4-20.5-17.7c-4.1-0.1-7.4,1.4-10,4.3
		c-5.6,6.6-5.4,18.4-5.4,18.5c0,0.6-0.4,1.2-1,1.2c-0.6,0-1-0.5-1-1.1c0-0.5-0.2-13,6-20.2c2.9-3.4,6.8-5.1,11.4-5
		c8.7,0.2,14.3,5.3,17.5,9.5c3.5,4.6,5.1,9.7,5.3,11.4c0.1,1.3-0.7,1.5-0.8,1.6l-0.4,0c-4-0.7-6.6-0.2-7.7,1.5
		c-2.3,3.8,2.1,12.9,4,16.8c0.5,1,0.8,1.7,1,2.2c0.6,1.7,1.4,2.9,2.1,3.8c0.6,0.8,1.1,1.5,1.2,2.4c0.1,0.2,1.3,2.2,8.2,0.5
		c1.7-0.4,2.8-0.1,3.1,1.1c0.6,2.2-2.9,4.7-4.8,5.8C971.1,551.5,968.3,552,965.9,552z M962.9,549.1c0.2,0.3,1.3,0.7,3.6,0.6
		c2-0.1,4.2-0.6,5.5-1.3c1.6-0.9,2.7-1.9,3.3-2.5L975,546c-4.4,1.1-7.6,0.9-9.3-0.4c-0.1-0.1-0.2-0.2-0.3-0.3
		c-0.2,0.1-0.4,0.1-0.5,0.2C963.8,545.7,962.8,546.1,962.9,549.1z M934.2,555.6c-1.1,0-2.3-0.2-3.5-0.5c-1.2-0.4-3.3-1.4-3.3-3.2
		c0-2,2.5-2.6,3.4-2.8c3.4-0.8,3.6-1.1,4.6-2.7c0.3-0.4,0.7-1,1.2-1.7c0.8-1,1.6-1.5,2.5-1.5c0.6,0,1.1,0.2,1.5,0.4
		c1.1,0.5,2,1.8,2.3,3.2c0.3,1.3,0.2,2.6-0.4,3.6C940.7,553.9,937.7,555.6,934.2,555.6z M929.7,552c0.3,0.3,0.9,0.6,1.6,0.8
		c1,0.3,2,0.4,3,0.4c2.9,0,5.2-1.4,6.8-4.1c0.3-0.6,0.2-1.3,0.2-1.6c-0.2-0.8-0.7-1.5-1.2-1.7c-0.3-0.1-0.5-0.2-0.7-0.2
		c-0.1,0-0.4,0-1,0.7c-0.5,0.6-0.8,1.1-1.1,1.6c-1.3,1.9-1.9,2.6-5.8,3.5C930.4,551.6,929.9,551.9,929.7,552L929.7,552z
		 M937.4,546.7c-0.5,0-0.9-0.4-1-1c0-0.2,0-0.4-0.1-0.6c-2.6-0.1-5-1.3-6.9-3.6c-2.4-2.8-3.5-6.8-3-10.8c0.5-4.4,0.3-8.2,0.2-10.3
		c0-0.6-0.1-1,0-1.3c0-0.4,0-1.3,2.8-3c1-0.6,3-1.6,5.2-1.9c3.6-0.4,6,1.4,6.8,5.3c1.9,10.3,0.2,14.9-1.1,18.2
		c-0.2,0.6-0.5,1.2-0.7,1.8l-0.2,0.5c-0.7,2.1-1.3,4-1.1,5.3c0.1,0.6-0.3,1.2-0.8,1.3C937.6,546.7,937.4,546.7,937.4,546.7z
		 M928.7,519.6l0,0.8c0.1,2.2,0.3,6.2-0.2,10.8c-0.4,3.3,0.5,6.6,2.4,8.9c1.5,1.8,3.6,2.9,5.6,2.9h0c0.2-1.1,0.6-2.3,1-3.6l0.2-0.5
		c0.2-0.6,0.4-1.3,0.7-1.9c1.3-3.2,2.8-7.2,1-16.8c-0.4-1.9-1.2-3-2.6-3.4C934,516.1,929.6,518.6,928.7,519.6z M934.8,519
		c-0.1,0.4,0.7,1.5,1.6,1.6c0.9,0.1,1.7-0.7,1.7-1.1c0-0.4-0.7-0.9-1.6-1C935.6,518.3,934.8,518.5,934.8,519z M936.6,521l-0.3,0
		c-0.6-0.1-1.1-0.5-1.5-1.1c-0.1-0.2-0.4-0.6-0.3-1c0.1-0.5,0.6-0.9,1.5-0.9c0.2,0,0.4,0,0.6,0c0.5,0.1,0.9,0.2,1.3,0.5
		c0.6,0.4,0.6,0.8,0.6,1C938.3,520.1,937.5,521,936.6,521z M935.1,519c0,0.3,0.6,1.1,1.3,1.2l0.2,0c0.7,0,1.1-0.6,1.2-0.8
		c-0.1-0.1-0.5-0.5-1.3-0.6c-0.2,0-0.4,0-0.5,0C935.4,518.8,935.2,518.9,935.1,519z M962.6,518.1c0,0.4-0.7,1.5-1.6,1.6
		c-0.9,0.1-1.7-0.7-1.7-1.1c0-0.4,0.7-0.9,1.6-1C961.7,517.5,962.5,517.7,962.6,518.1z M960.8,520c-0.9,0-1.6-0.8-1.7-1.3
		c-0.1-0.6,0.8-1.1,1.7-1.2c0.2,0,0.4,0,0.6,0c0.8,0,1.3,0.3,1.3,0.7c0,0.3-0.1,0.7-0.5,1.1c-0.2,0.3-0.6,0.7-1.2,0.8
		C961,520,960.8,520,960.8,520z M961.4,517.8c-0.2,0-0.4,0-0.5,0c-0.9,0.1-1.4,0.6-1.4,0.8c0,0.2,0.6,1,1.4,1l0.2,0
		c0.5-0.1,0.9-0.5,1-0.7c0.3-0.3,0.4-0.7,0.4-0.8C962.4,518,962.1,517.8,961.4,517.8z M963.9,541.6c-0.2,0-0.4-0.1-0.6-0.2
		c-0.5-0.4-0.6-1.1-0.3-1.6c2.1-3.7,1.7-7.4,1.4-11.1c-0.2-1.5-0.3-3.1-0.3-4.7c0-1.6,0.2-2.9,0.4-4.1c0.2-1.5,0.4-2.9,0.3-4.6
		c0-0.6,0.4-1.2,0.9-1.2c0.6,0,1,0.5,1.1,1.1c0.1,1.9-0.1,3.5-0.3,5c-0.2,1.2-0.3,2.4-0.4,3.9c0,1.4,0.1,2.8,0.3,4.3
		c0.4,3.9,0.9,8.2-1.7,12.6C964.5,541.4,964.2,541.6,963.9,541.6z"/>
	<path class="st6" d="M904.7,502.6"/>
	<path d="M896,580c0.9-0.2,2-0.3,3.4-0.3c1.7,0,3,0.5,3.8,1.3c0.8,0.7,1.2,1.9,1.2,3.3c0,1.4-0.4,2.6-1.1,3.4
		c-0.9,1.1-2.5,1.7-4.2,1.7c-0.5,0-1,0-1.6-0.1v5.9H896V580L896,580z M897.6,587.6c0.4,0.1,0.9,0.2,1.5,0.2c2.1,0,3.4-1.2,3.4-3.4
		c0-2.1-1.3-3.1-3.2-3.1c-0.8,0-1.4,0.1-1.7,0.2C897.6,581.5,897.6,587.6,897.6,587.6z M915.2,589.8c0,4.2-2.5,6-4.9,6
		c-2.7,0-4.7-2.2-4.7-5.8c0-3.8,2.2-6,4.9-6C913.3,584,915.2,586.3,915.2,589.8z M907.4,589.9c0,2.5,1.2,4.4,3,4.4
		c1.7,0,3-1.8,3-4.4c0-1.9-0.8-4.4-2.9-4.4S907.4,587.8,907.4,589.9z M917.2,593.5c0.5,0.4,1.5,0.8,2.4,0.8c1.3,0,1.9-0.7,1.9-1.7
		c0-1-0.5-1.5-1.8-2.1c-1.8-0.7-2.6-1.8-2.6-3.2c0-1.8,1.3-3.3,3.4-3.3c1,0,1.9,0.3,2.4,0.7l-0.4,1.5c-0.4-0.3-1.1-0.7-2-0.7
		c-1.1,0-1.6,0.7-1.6,1.5c0,0.9,0.6,1.4,1.9,1.9c1.7,0.7,2.6,1.7,2.6,3.4c0,2-1.3,3.4-3.7,3.4c-1.1,0-2.1-0.3-2.8-0.8
		C916.7,595,917.2,593.5,917.2,593.5z M928.1,581v3.3h2.3v1.8h-3.1v5.8c0.3,1.4,0.7,2.2,1.7,2.2c0.5,0,0.8-0.1,1-0.1l0.1,1.5
		c-0.3,0.2-0.9,0.3-1.6,0.3c-0.8,0-1.5-0.3-1.9-0.9c-0.5-0.6-0.8-2.9-0.8-2.9v-5.8h-1.6v-1.8h1.6v-2.8
		C925.9,581.5,928.1,581,928.1,581z M940.7,584.3c0,0.9-0.1,1.8-0.1,3.3v6.3c0,0-0.6,4.2-1.5,5.2c-1,1-2.3,1.4-3.6,1.4
		c-1.2,0-2.5-0.3-3.3-0.9l0.4-1.6c0.7,0.5,1.7,0.9,2.9,0.9c1.8,0,3.2-1.1,3.5-4v-0.7h-0.3c-0.5,0.4-1.6,1.3-3.1,1.3
		c-2.4,0-4.2-2.4-4.2-5.5c0-3.8,2.2-6,4.4-6c1.7,0,3.1,2.2,3.1,2.2h0.1l0.1-1.8C939,584.3,940.7,584.3,940.7,584.3z M939,588.7
		c0-0.4,0-0.7-0.1-0.9c-0.3-1.2-1.2-2.2-2.5-2.2c-1.9,0-3.2,2-2.9,5.1c0.1,1.1,0.6,2.2,1.5,2.8c1.6,1,3.3,0.2,3.9-1.7
		c0.1-0.4,0.1-0.7,0.1-1.1L939,588.7L939,588.7z M943.7,587.8c-0.4-1.3-0.5-3.4-0.5-3.4h1.6l0.1,1.8h0.1c0.4-1.2,1.5-2.2,2.7-2.2
		c0.2,0,0.3,0,0.7,0.1v1.9c-0.4,0-0.6-0.1-0.8-0.1c-1.3,0-2.2,1.1-2.4,2.6c0,0.3,0.1,1,0.1,1v6.5h-1.6V587.8z M950.8,590.6
		c0,2.8,1.6,3.9,3.4,3.9c1.3,0,2.1-0.3,2.7-0.6l0.3,1.5c-0.6,0.3-1.7,0.7-3.3,0.7c-3,0-4.8-2.3-4.8-5.7c0-3.4,1.7-6.1,4.6-6.1
		c3.2,0,4.1,3.3,4.1,5.3c0,0.4,0,0.7-0.1,1L950.8,590.6L950.8,590.6z M956,588.8c0-1.3-0.5-3.3-2.5-3.3c-1.8,0-2.6,1.9-2.7,3.3H956z
		"/>
	<path class="st4" d="M959.8,593.1c0.8,0.6,2,1,3.2,1c1.8,0,2.9-1.1,2.9-2.7c0-1.5-0.7-2.3-2.6-3.1c-2.2-0.9-3.6-2.2-3.6-4.5
		c0-2.5,1.8-4.3,4.4-4.3c1.4,0,2.4,0.4,3,0.8l-0.5,1.7c-0.4-0.3-1.4-0.7-2.6-0.7c-1.9,0-2.6,1.3-2.6,2.4c0,1.5,0.8,2.2,2.7,3
		c2.3,1,3.5,2.3,3.5,4.6c0,2.4-1.6,4.5-4.8,4.5c-1.3,0-2.8-0.4-3.5-1C959.3,594.8,959.8,593.1,959.8,593.1z M981.6,597.9
		c-1.9-0.6-3.7-1.2-5.2-1.8c-0.3-0.1-0.6-0.2-0.8-0.2c-3.3-0.1-6-2.9-6-8c0-5.1,2.7-8.3,6.4-8.3c3.7,0,6.1,3.3,6.1,8
		c0,4-1.6,6.6-3.9,7.6v0.1c1.4,0.4,2.8,0.8,4,1L981.6,597.9z M979.9,587.6c0-3.2-1.4-6.4-4.3-6.4c-3,0-4.5,3.2-4.4,6.6
		c0,3.3,1.6,6.4,4.4,6.4C978.3,594.2,979.9,591.2,979.9,587.6z M983.6,579.8h2.3v14.4h5.5v1.8h-7.8V579.8z"/>
</g>
<g>
	<g id="Layer_1_2_">
		<rect x="514" y="515.4" class="st7" width="20.2" height="78.3"/>
		<rect x="514" y="497.6" class="st7" width="20.2" height="5.9"/>
		<rect x="538.9" y="515.4" class="st8" width="20.2" height="64.1"/>
		<rect x="538.9" y="497.6" class="st8" width="20.2" height="5.9"/>
		<rect x="561.5" y="515.4" class="st9" width="20.2" height="50.4"/>
		<rect x="561.5" y="497.6" class="st9" width="20.2" height="5.9"/>
		<rect x="585.2" y="515.4" class="st10" width="20.2" height="41.5"/>
		<rect x="585.2" y="497.6" class="st10" width="20.2" height="5.9"/>
		<rect x="511.6" y="504.7" class="st11" width="96.1" height="8.9"/>
	</g>
</g>
<g>
	<g>
		<path class="st12" d="M990.4,335.1c0-6.4-4.9-11.7-11-11.7c-0.4,0-0.8,0-1.2,0.1l15.1-47.3h-64l15,47.2c-0.2,0-0.4,0-0.7,0
			c-6.1,0-11,5.2-11,11.7c0,5.2,3.2,9.6,7.6,11.1c-2.3,4.3-5.3,8.2-8.6,11.5c-4.5,4.6-9.7,8-15.4,10.2c-6.7-3.7-9.9-11.8-7-18.9
			c0.3-0.8,0.7-1.6,1-2.4c5.2-1.3,9-6.6,8.4-12.7c-0.6-5.4-4.6-9.7-9.7-10.3c-6.6-0.8-12.2,4.7-12.2,11.6c0,4,1.8,7.4,4.7,9.6
			c-2.7,6.6-6.7,13.5-8,21.4c-1.5,9.6,0,19.7,7.8,25.4c18.1,13.3,37.8-8.3,58.5-13.7c7.5-2,15.8-1.7,22.4-5.7
			c5-3.1,8.2-8.1,9.2-13.8c0.9-5.6-0.4-11.2-3.5-15.8C989.5,340.6,990.4,338,990.4,335.1L990.4,335.1z M954.7,335.2
			c0-0.4,0-0.4,0-0.4c0-4.2-2.1-7.9-5.3-10l12-25.8l12,26c-2.9,2.1-4.9,5.7-4.9,9.7c0,0.1,0,0.2,0,0.4H954.7L954.7,335.2z"/>
		<path class="st5" d="M993.1,335.1c0-7.1-4.8-13-11.1-14.3l15.1-47.5h-71.5l15.2,47.6c-6.1,1.4-10.7,7.2-10.7,14.2
			c0,5.2,2.6,9.8,6.5,12.3c-1.9,3-4.1,5.7-6.6,8.3c-4,4-8.5,7.1-13.3,9.1c-4.9-3.2-6.9-9.4-4.8-14.7l0.2-0.4
			c0.1-0.3,0.2-0.5,0.3-0.8c5.5-2,9.4-7.6,9.2-14.2c-0.2-7.5-5.9-13.6-12.9-14c-7.9-0.5-14.4,6.2-14.4,14.5c0,4,1.6,7.7,4.1,10.3
			c-0.5,1-0.9,2.1-1.4,3.2c-2.3,5-4.9,10.7-5.9,17c-2,12.6,1.2,22.6,8.9,28.3c4.7,3.4,9.4,4.8,14.2,4.8c9,0,18.1-4.8,26.9-9.5
			c6.4-3.4,13-6.9,19.5-8.6c2.4-0.6,4.9-1,7.6-1.4c5.3-0.8,10.7-1.6,15.5-4.6c5.6-3.4,9.4-9.2,10.5-15.8c0.9-5.7-0.2-11.4-2.9-16.2
			C992.4,340.5,993.1,337.9,993.1,335.1L993.1,335.1z M987.7,334.8c0,4.9-3.7,8.8-8.3,8.8c-4.6,0-8.3-4-8.3-8.8
			c0-4.9,3.7-8.8,8.3-8.8C984,326,987.7,330,987.7,334.8L987.7,334.8z M989.6,279.1L976.3,321c-0.6,0.1-1.1,0.3-1.7,0.6l-13.2-28.6
			l-13.2,28.5c-0.6-0.2-1.2-0.4-1.8-0.5l-13.3-41.8H989.6L989.6,279.1z M943.7,326c4.6,0,8.3,4,8.3,8.8c0,4.9-3.7,8.8-8.3,8.8
			c-4.6,0-8.3-4-8.3-8.8C935.4,330,939.1,326,943.7,326L943.7,326z M907.8,326.1c4.6,0,8.3,4,8.3,8.8c0,4.9-3.7,8.8-8.3,8.8
			c-4.6,0-8.3-4-8.3-8.8C899.5,330.1,903.2,326.1,907.8,326.1L907.8,326.1z M988.7,357.6c-0.8,4.9-3.7,9.3-7.9,11.8
			c-3.9,2.4-8.6,3.1-13.6,3.9c-2.7,0.4-5.4,0.8-8.1,1.5c-7.1,1.9-14,5.5-20.6,9c-13.3,7-24.8,13.1-35.7,5.1
			c-7.9-5.9-7.6-16.7-6.7-22.6c0.9-5.5,3.2-10.6,5.4-15.5c0.4-0.8,0.8-1.7,1.1-2.5c1.1,0.5,2.3,0.8,3.5,0.9
			c-2.3,8,1.3,16.7,8.8,20.8l1,0.6l1.1-0.4c6-2.3,11.4-5.9,16.3-10.8c3.1-3.2,5.9-6.7,8.1-10.4c0.7,0.1,1.3,0.2,2,0.2
			c7.5,0,13.7-6.5,13.7-14.5c0-4.3-1.8-8.2-4.6-10.8l8.6-18.5l8.7,18.8c-2.6,2.6-4.2,6.4-4.2,10.5c0,8,6.1,14.5,13.7,14.5
			c2.9,0,5.6-1,7.8-2.6C988.8,350.1,989.3,353.9,988.7,357.6L988.7,357.6z"/>
	</g>
</g>
<g>
	<path class="st13" d="M633.9,777.2l-67.3-67.3c-3.9-3.9-10.2-3.9-14,0l-14,14l17.7,17.7c4.1-1.4,8.8-0.5,12.1,2.8
		c3.3,3.3,4.2,8.1,2.8,12.2l17.1,17.1c4.1-1.4,8.9-0.5,12.2,2.8c4.6,4.6,4.6,12.1,0,16.7c-4.6,4.6-12.1,4.6-16.7,0
		c-3.5-3.5-4.3-8.6-2.6-12.8l-16-15.9v41.9c1.2,0.6,2.3,1.3,3.2,2.2c4.6,4.6,4.6,12.1,0,16.7c-4.6,4.6-12.1,4.6-16.7,0
		c-4.6-4.6-4.6-12.1,0-16.7c1.1-1.1,2.5-2,3.5-2.6v-42.3c-1-0.6-2.3-1.4-3.5-2.6c-3.5-3.5-4.3-8.6-2.5-12.9l-17.5-17.5l-46.2,46.1
		c-3.9,3.9-3.9,10.2,0,14l67.3,67.3c3.9,3.9,10.2,3.9,14,0l67-67C637.7,787.4,637.7,781.1,633.9,777.2z"/>
</g>
<g>
	<path class="st14" d="M111,271.4h127v129.4H111L111,271.4z"/>
	<path class="st15" d="M227.6,369.9c-0.9-5.9-4.7-10.9-15.9-15.5c-3.9-1.8-8.2-3.1-9.5-6.1c-0.5-1.8-0.5-2.7-0.2-3.8
		c0.8-3.4,4.9-4.5,8.1-3.5c2.1,0.7,4,2.3,5.2,4.9c5.5-3.6,5.5-3.6,9.3-6.1c-1.4-2.2-2.2-3.2-3.1-4.2c-3.3-3.8-7.8-5.7-15-5.5
		l-3.7,0.5c-3.6,0.9-7,2.8-9,5.4c-6,7-4.3,19.2,3,24.2c7.2,5.5,17.8,6.8,19.2,11.9c1.3,6.3-4.6,8.4-10.4,7.6
		c-4.3-0.9-6.7-3.1-9.3-7.2c-4.8,2.8-4.8,2.8-9.7,5.7c1.2,2.6,2.4,3.8,4.3,6c9.2,9.5,32.3,9.1,36.4-5.4
		C227.4,378.2,228.5,374.9,227.6,369.9z M180.1,330.4h-11.9l0,31.4c0,6.7,0.3,12.8-0.7,14.7c-1.7,3.7-6.3,3.2-8.3,2.5
		c-2.1-1-3.2-2.5-4.4-4.6c-0.3-0.6-0.6-1.1-0.7-1.1l-9.7,6c1.6,3.4,4,6.3,7,8.2c4.5,2.8,10.6,3.6,17,2.1c4.1-1.2,7.7-3.8,9.6-7.7
		c2.7-5.1,2.1-11.3,2.1-18.1C180.2,352.7,180.1,341.5,180.1,330.4z"/>
</g>
<g>
	<path class="st16" d="M173.8,501.3c-3.6,0-7.1,0.3-10.2,0.9c-9,1.6-10.7,4.9-10.7,11.1v7.7h21.3v2.8H145c-6.2,0-11.6,3.7-13.3,10.8
		c-2,8.1-2,13.2,0,21.7c1.5,6.3,5.1,10.8,11.3,10.8h7.2v-9.6c0-7,6-13.1,13.2-13.1h21.6c5.9,0,10.7-4.9,10.7-10.8v-20.3
		c0-5.8-4.9-10.1-10.7-11.1C181.3,501.6,177.5,501.3,173.8,501.3z M162.2,507.6c2.2,0,4,1.8,4,4.1c0,2.2-1.8,4-4,4c-2.2,0-4-1.8-4-4
		C158.2,509.4,160,507.6,162.2,507.6z"/>
	<path class="st17" d="M198.4,523.7v9.2c0,7.3-6.2,13.5-13.3,13.5h-21.5c-5.8,0-10.7,5-10.7,10.8v20.3c0,5.8,5,9.2,10.7,10.8
		c6.7,2,13.2,2.3,21.3,0c5.4-1.6,10.7-4.7,10.7-10.8v-7.7h-21.3V567h32.2c6.2,0,8.6-4.3,10.7-10.8c2.2-6.7,2.1-13.1,0-21.7
		c-1.5-6.2-4.5-10.8-10.7-10.8L198.4,523.7L198.4,523.7z M186.1,575.1c2.2,0,4,1.8,4,4c0,2.2-1.8,4.1-4,4.1c-2.2,0-4-1.8-4-4.1
		C182.1,576.9,183.9,575.1,186.1,575.1z"/>
</g>
<g>
	<path class="st18" d="M956.5,115.7c-2.4-0.8-5.9-0.6-10.5-0.6h-18.4v24h19.7c3.1,0,5.2-0.3,6.5-0.6c2.2-0.4,4-1.2,5.5-2.1
		c1.5-0.9,2.7-2.3,3.6-4c0.9-1.7,1.4-3.8,1.4-6.1c0-2.7-0.7-4.7-2.1-6.7C960.9,117.6,959,116.5,956.5,115.7z M954.5,104.5
		c2.5-0.7,4.3-2,5.6-3.7c1.2-1.7,1.9-3.9,1.9-6.4c0-2.4-0.6-4.6-1.7-6.4c-1.2-1.8-2.8-2.6-5-3.2c-2.2-0.7-5.9-0.5-11.1-0.5h-16.4
		v21.3h17.6C949.5,105.4,952.6,105,954.5,104.5z M991.8,48.5h-96.1c-9.6,0-17.4,7.8-17.4,17.4V162c0,9.6,7.8,17.4,17.4,17.4h96.1
		c9.6,0,17.4-7.8,17.4-17.4V66C1009.2,56.3,1001.4,48.5,991.8,48.5z M972.3,135.4c-1.4,2.9-3.2,5.2-5.3,6.8
		c-2.1,1.6-4.8,2.9-7.9,3.7c-3.2,0.8-7.1,1.4-11.7,1.4H918V74.6h28.9c5.5,0,10,0.6,13.3,2.1c3.4,1.5,6,3.7,7.9,6.7
		c1.9,3.1,2.8,6.2,2.8,9.6c0,3.1-0.8,6-2.5,8.7c-1.7,2.7-4.2,4.9-7.6,6.6c4.4,1.3,7.8,3.5,10.1,6.6c2.4,3.1,3.5,6.8,3.5,11
		C974.5,129.3,973.8,132.5,972.3,135.4z"/>
</g>
<g>
	<path class="st19" d="M207,39.3h-9.8L207,50v5.3h-20v-6h9.7L187,38.6v-5.2h20C207,33.3,207,39.3,207,39.3z M183,39.3h-9.8L183,50
		v5.3h-20v-6h9.7L163,38.6v-5.2h20V39.3z M159,39.3h-10v9h10v7h-17v-22h17C159,33.3,159,39.3,159,39.3z"/>
	<path class="st20" d="M127.9,181.7L117.5,65.3h114.1l-10.4,116.4l-46.7,13C174.4,194.7,127.9,181.7,127.9,181.7z"/>
	<path class="st21" d="M175,184.3l37.7-10.5l8.9-99.5H175C175,74.3,175,184.3,175,184.3z"/>
	<path class="st5" d="M175,117.3h19.4l1.3-15H175v-14h35.7l-0.3,3.8l-3.5,39.2H175V117.3z"/>
	<path class="st22" d="M175,154.3L175,154.3l-16.3-4.4l-1-11.6H143l2,22.9l29.9,8.3l0.1,0L175,154.3L175,154.3z"/>
	<path class="st5" d="M192.6,130.3l-1.7,19.1l-15.9,4.3v14.9l29.3-8.1l0.2-2.4l2.5-27.8L192.6,130.3L192.6,130.3z"/>
	<path class="st22" d="M175,88.3v14h-33.8l-0.3-3.1l-0.6-7.1l-0.3-3.8C139.9,88.3,175,88.3,175,88.3z M175,116.3v14h-15.4l-0.3-3.1
		l-0.6-7.1l-0.3-3.8H175z"/>
</g>
<g>
	<path class="st23" d="M509.9,169.2L498.8,45h121.7l-11.1,124.2L559.6,183L509.9,169.2z"/>
	<path class="st24" d="M559.3,172.3l40.3-11.2L609,55h-49.7V172.3z"/>
	<path class="st22" d="M559.3,101h-20.7l-1.4-16h22.1V70h-38.1l0.4,4.1l3.7,41.9h34V101z M559.3,140.7L559.3,140.7l-17-4.6
		l-1.1-12.1h-15.3l2.1,23.9l31.2,8.7l0.1,0V140.7z"/>
	<path class="st5" d="M559.3,101v15h18.5l-1.7,19.5l-16.7,4.5v15.6l30.8-8.5l-6.5-2.1l3.5-39.5l7.1-4.5h-4H559.3z M559.3,71v15h36.2
		l0.3-3.4l0.7-7.6l0.4-4H559.3z"/>
</g>
<g>
	<path class="st25" d="M559.7,351.4c6.7,6.2,13.2,9.9,18.5,9.9c1.7,0,3.4-0.4,4.7-1.1c4.7-2.6,6.5-9.2,4.8-18.6
		c-0.3-1.7-0.6-3.3-1.1-5.1c1.8-0.5,3.5-1.1,5.1-1.6c9.2-3.4,14.3-8.2,14.3-13.4c0-5.3-5.1-10-14.3-13.4c-1.6-0.6-3.3-1.1-5.1-1.6
		c0.5-1.8,0.8-3.4,1.1-5.1c1.6-9.6-0.2-16.3-4.9-18.9c-1.4-0.8-3-1.1-4.7-1.1c-5.2,0-11.9,3.7-18.5,9.9c-6.6-6.2-13.1-9.9-18.4-9.9
		c-1.7,0-3.4,0.4-4.7,1.1c-4.7,2.6-6.5,9.2-4.8,18.6c0.3,1.7,0.6,3.3,1.1,5.1c-1.8,0.5-3.5,1.1-5.1,1.6c-9.2,3.4-14.3,8.2-14.3,13.4
		c0,5.3,5.1,10,14.3,13.4c1.6,0.6,3.3,1.1,5.1,1.6c-0.5,1.8-0.8,3.4-1.1,5.1c-1.6,9.4,0.2,16.1,4.8,18.6c1.4,0.8,3,1.1,4.7,1.1
		C546.5,361.2,553,357.5,559.7,351.4L559.7,351.4z M554.6,339.5c1.6,0.1,3.4,0.1,5.1,0.1s3.5,0,5.1-0.1c-1.6,2.1-3.4,4-5.1,5.9
		C558,343.5,556.2,341.6,554.6,339.5z M543.3,330.4c0.9,1.5,1.7,2.9,2.7,4.3c-2.8-0.4-5.5-0.8-8-1.3c0.8-2.4,1.7-4.8,2.8-7.3
		C541.5,327.5,542.4,329,543.3,330.4z M538,309.3c2.6-0.5,5.2-1,8-1.3c-0.9,1.4-1.8,2.8-2.7,4.3c-0.9,1.5-1.7,2.9-2.5,4.4
		C539.6,314.1,538.7,311.6,538,309.3z M543,321.3c1.2-2.4,2.5-4.7,3.9-7.1c1.4-2.3,2.9-4.6,4.5-6.9c2.7-0.2,5.5-0.3,8.3-0.3
		c2.9,0,5.7,0.1,8.3,0.3c1.6,2.3,3.1,4.6,4.5,6.9c1.5,2.4,2.7,4.7,3.9,7.1c-1.2,2.4-2.5,4.7-3.9,7.1c-1.4,2.3-2.9,4.6-4.5,6.9
		c-2.7,0.2-5.5,0.3-8.3,0.3c-2.9,0-5.7-0.1-8.3-0.3c-1.6-2.3-3.1-4.6-4.5-6.9C545.5,326,544.2,323.7,543,321.3z M578.7,316.6
		l-2.5-4.4c-0.9-1.5-1.7-2.9-2.7-4.3c2.8,0.4,5.5,0.8,8,1.3C580.7,311.6,579.7,314.1,578.7,316.6z M578.7,326c1.1,2.5,2,4.9,2.8,7.3
		c-2.6,0.5-5.2,1-8,1.3c0.9-1.4,1.8-2.8,2.7-4.3C577,329,577.8,327.5,578.7,326z M580.8,356.5c-0.7,0.4-1.6,0.6-2.6,0.6
		c-4.5,0-10-3.5-15.5-8.8c2.6-2.7,5.2-5.8,7.8-9.2c4.3-0.4,8.4-1,12.2-1.8c0.5,1.6,0.7,3.2,1,4.7
		C584.9,349.5,583.9,354.9,580.8,356.5z M585.5,310.2c10.2,2.8,16.3,7.1,16.3,11.1c0,3.4-4.2,6.9-11.6,9.6c-1.5,0.5-3.1,1.1-4.7,1.5
		c-1.2-3.6-2.6-7.3-4.5-11.1C582.9,317.5,584.4,313.8,585.5,310.2z M578.2,285.4c1,0,1.8,0.2,2.6,0.6c3,1.7,4.1,6.9,2.8,14.5
		c-0.3,1.5-0.6,3.1-1,4.7c-3.8-0.8-7.9-1.4-12.2-1.8c-2.5-3.4-5.1-6.5-7.8-9.2C568.2,289.1,573.7,285.4,578.2,285.4z M564.8,303.1
		c-1.6-0.1-3.4-0.1-5.1-0.1s-3.5,0-5.1,0.1c1.6-2.1,3.4-4,5.1-5.9C561.4,299.1,563.1,301.1,564.8,303.1z M538.6,286.1
		c0.7-0.4,1.6-0.6,2.6-0.6c4.5,0,10,3.5,15.5,8.8c-2.6,2.7-5.2,5.8-7.8,9.2c-4.3,0.4-8.4,1-12.2,1.8c-0.5-1.6-0.7-3.2-1-4.7
		C534.5,293.1,535.5,287.8,538.6,286.1z M533.9,332.4c-10.2-2.8-16.3-7.1-16.3-11.1c0-3.4,4.2-6.9,11.6-9.6c1.5-0.5,3.1-1.1,4.7-1.5
		c1.2,3.6,2.6,7.3,4.5,11.1C536.5,325.1,535,328.9,533.9,332.4z M535.8,342c0.3-1.5,0.6-3.1,1-4.7c3.8,0.8,7.9,1.4,12.2,1.8
		c2.5,3.4,5.1,6.5,7.8,9.2c-5.5,5.2-11,8.8-15.5,8.8c-1,0-1.8-0.2-2.6-0.6C535.5,354.9,534.5,349.5,535.8,342z M532,378.4
		c2-2.4,2.1-5,1-7.7s-3.4-3.9-6.3-4c-3.4-0.1-6.9,0-10.3,0h-0.6v22.5h2.7V381h4.3c0.5,0,1,0.2,1.3,0.6l5.5,8.2
		c0.1,0.2,0.4,0.4,0.5,0.4h3.8c-2.2-3.3-4.3-6.4-6.5-9.6C529.2,380.4,530.9,379.8,532,378.4z M518.5,377.9v-8.7h1
		c2.1,0,4.3-0.1,6.4,0.1c2.5,0.1,4.2,1.9,4.2,4.3s-2,4.2-4.5,4.3C523.4,378,521.2,377.9,518.5,377.9z M553.9,379.3
		c-1.5-6.2-7.3-7.7-11.8-5.8c-3.5,1.5-5,4.4-5.1,8c-0.1,2.7,0.7,5.2,2.9,7c2.5,2.1,5.5,2.4,8.6,1.8c1.7-0.4,3.3-1.1,4.5-2.4
		c-0.5-0.6-0.9-1.2-1.4-1.8c-2.6,2.1-5.4,2.8-8.5,1.4c-2-1-3-3.3-3.2-5.1h14.1v-1.1C554.2,380.6,554.1,379.9,553.9,379.3z
		 M540.2,380.5c-0.3-2.6,2.5-5.4,5.5-5.4c3.5-0.1,5.7,1.9,5.7,5.4H540.2z M568,373.2c-1.4-0.3-2.8-0.4-4.2-0.3
		c-2.2,0.2-4.1,1.1-5.7,2.7c0.5,0.6,0.8,1.2,1.4,1.9c0.2-0.2,0.4-0.4,0.5-0.4c1.5-1.3,3.2-2,5.3-1.8c1.6,0.1,3.2,0.6,3.6,2.2
		c0.4,1.2,0.3,2.5,0.4,3.9c-0.3,0-0.4-0.1-0.5-0.2c-2.2-1.8-4.7-2.1-7.3-1.5c-2.5,0.6-4,2.5-4.2,4.8c-0.2,2.7,1.1,4.7,3.6,5.7
		c1.6,0.6,3.3,0.6,4.9,0.3c1.3-0.3,1.8-1,3.6-1.9v1.1h2.6c0-3.5,0.1-7.8,0-11.9C572.1,375.3,570.5,373.7,568,373.2z M569.4,384.1
		c-0.1,0.3,0,0.5,0,0.8c0,1.8-0.5,2.5-2.3,3.2c-1.3,0.4-2.6,0.6-4,0.2c-1.6-0.4-2.6-1.8-2.6-3.3c-0.1-1.5,0.9-3,2.5-3.4
		c2.1-0.7,4-0.3,5.7,1C569.3,382.9,569.6,383.4,569.4,384.1z M583.7,375.4c2.4-0.7,4.6-0.3,6.2,1.7l0.3,0.2c0.6-0.5,1.2-1.1,1.9-1.7
		c-0.3-0.3-0.4-0.4-0.5-0.7c-2.6-2.7-7.8-3.1-11-0.9c-4.5,3.2-4.4,9.3-2.2,12.6c2.1,3.1,5.1,4.1,8.7,3.7c2.1-0.3,3.8-1.2,5.2-2.9
		c-0.6-0.5-1.3-1.1-1.9-1.7c-0.2,0.2-0.3,0.3-0.4,0.4c-2.5,2.6-6.6,2.4-8.8-0.4c-1.3-1.7-1.6-3.6-1.2-5.5
		C580.1,377.9,581.3,376.1,583.7,375.4L583.7,375.4z M602.6,387.3c-0.2,0.1-0.3,0.2-0.3,0.2c-0.7,0.5-1.5,0.6-2.3,0.4
		c-0.8-0.4-0.9-1.1-0.8-1.8v-10c-0.2-0.2-0.1-0.7-0.1-0.7h3.3v-2.6h-3.7v-4.6h-2.7v5.1h-2.2c0,0-0.5-0.1-0.5,0.1c-0.1,0.6,0,1.1,0,2
		h3.2v11.2c-0.3,1.4,0.1,2.6,1.4,3.3c1.4,0.8,4,0.6,5.2-0.4c0.2-0.1,0.3-0.4,0.3-0.5C603.2,388.5,602.9,387.9,602.6,387.3z"/>
</g>
<g id="Layer_2">
</g>
<line class="st26" x1="0" y1="223" x2="1127.5" y2="223"/>
<line class="st26" x1="0" y1="444" x2="1127.5" y2="444"/>
<line class="st26" x1="0" y1="664" x2="1127.5" y2="664"/>
<line class="st27" x1="375" y1="0" x2="375" y2="885"/>
<line class="st27" x1="750" y1="0" x2="750" y2="885"/>
</svg>
